<svg width="131" height="131" viewBox="0 0 131 131" fill="none" xmlns="http://www.w3.org/2000/svg">
<g opacity="0.2" clip-path="url(#clip0)">
<path d="M6.55002 96.0667C5.01603 96.0651 3.50968 95.6584 2.18335 94.8877V120.083C2.18335 122.4 3.10347 124.621 4.74128 126.259C6.3791 127.897 8.60046 128.817 10.9167 128.817L33.4269 96.0667H6.55002Z" fill="#E8EDFC"/>
<path d="M128.817 28.3837V87.0936L106.569 54.5401C108.503 54.3349 110.287 53.3994 111.556 51.9244C112.825 50.4493 113.483 48.5457 113.397 46.6019C113.311 44.6581 112.486 42.8204 111.092 41.4636C109.697 40.1068 107.837 39.3332 105.892 39.3004H102.617C102.595 36.5816 101.559 33.9687 99.7128 31.9732C97.8662 29.9776 95.3413 28.7429 92.6324 28.5108C89.9234 28.2787 87.2253 29.0658 85.0661 30.7182C82.9069 32.3705 81.442 34.7691 80.958 37.4446C80.1915 37.2244 79.3976 37.1141 78.6 37.1171C76.2838 37.1171 74.0624 38.0372 72.4246 39.675C70.7868 41.3128 69.8667 43.5342 69.8667 45.8504C69.8667 48.1666 70.7868 50.388 72.4246 52.0258C74.0624 53.6636 76.2838 54.5837 78.6 54.5837H94.2982L70.8492 88.9712L57.1815 69.0811C56.8902 68.6618 56.5018 68.3192 56.0493 68.0826C55.5969 67.846 55.0939 67.7225 54.5834 67.7225C54.0728 67.7225 53.5698 67.846 53.1174 68.0826C52.6649 68.3192 52.2765 68.6618 51.9852 69.0811L40.8065 85.3251C40.212 83.9735 39.2368 82.8243 38 82.0179C36.7631 81.2114 35.3182 80.7826 33.8417 80.7837H30.5667C30.545 78.0649 29.5094 75.4521 27.6628 73.4565C25.8162 71.4609 23.2913 70.2263 20.5823 69.9942C17.8734 69.762 15.1753 70.5492 13.0161 72.2015C10.8569 73.8538 9.39196 76.2524 8.90802 78.9279C8.14147 78.7077 7.34755 78.5974 6.55002 78.6004C5.01603 78.602 3.50968 79.0087 2.18335 79.7794V28.3837C2.18335 26.0675 3.10347 23.8461 4.74128 22.2083C6.3791 20.5705 8.60046 19.6504 10.9167 19.6504H120.083C122.4 19.6504 124.621 20.5705 126.259 22.2083C127.897 23.8461 128.817 26.0675 128.817 28.3837Z" fill="#E8EDFC"/>
<path d="M120.083 19.6504H113.533C115.849 19.6504 118.071 20.5705 119.709 22.2083C121.346 23.8461 122.267 26.0675 122.267 28.3837V77.5087L128.817 87.0936V28.3837C128.817 26.0675 127.896 23.8461 126.259 22.2083C124.621 20.5705 122.399 19.6504 120.083 19.6504Z" fill="#CAD9FC"/>
<path d="M28.3835 52.3997C34.4126 52.3997 39.3001 47.5122 39.3001 41.4831C39.3001 35.454 34.4126 30.5664 28.3835 30.5664C22.3544 30.5664 17.4668 35.454 17.4668 41.4831C17.4668 47.5122 22.3544 52.3997 28.3835 52.3997Z" fill="#E8EDFC"/>
<path d="M28.3834 30.5664C27.2695 30.5816 26.1647 30.7694 25.1084 31.1232C27.3222 31.8067 29.2589 33.1813 30.6345 35.0457C32.0101 36.9101 32.7523 39.1661 32.7523 41.4831C32.7523 43.8 32.0101 46.056 30.6345 47.9204C29.2589 49.7848 27.3222 51.1595 25.1084 51.843C26.1647 52.1967 27.2695 52.3845 28.3834 52.3997C31.2787 52.3997 34.0554 51.2496 36.1026 49.2023C38.1499 47.155 39.3001 44.3784 39.3001 41.4831C39.3001 38.5878 38.1499 35.8111 36.1026 33.7638C34.0554 31.7166 31.2787 30.5664 28.3834 30.5664Z" fill="#CAD9FC"/>
<path d="M40.8065 85.3249L33.4269 96.0669H6.55002C5.01603 96.0653 3.50968 95.6586 2.18335 94.8879V79.7792C3.50968 79.0085 5.01603 78.6018 6.55002 78.6002C7.34755 78.5972 8.14147 78.7075 8.90802 78.9277C9.39196 76.2522 10.8569 73.8536 13.0161 72.2013C15.1753 70.549 17.8734 69.7619 20.5823 69.994C23.2913 70.2261 25.8162 71.4607 27.6628 73.4563C29.5094 75.4519 30.545 78.0647 30.5667 80.7835H33.8417C35.3182 80.7824 36.7631 81.2112 38 82.0177C39.2368 82.8241 40.212 83.9733 40.8065 85.3249Z" fill="#C6D8FB"/>
<path d="M33.8417 80.7832H30.5667C30.581 79.0626 30.185 77.3634 29.4115 75.8264C28.6381 74.2894 27.5095 72.9589 26.1192 71.9451C24.7289 70.9313 23.117 70.2634 21.4171 69.9969C19.7173 69.7304 17.9783 69.8728 16.3445 70.4124C18.5617 71.0975 20.502 72.4733 21.8822 74.339C23.2624 76.2046 24.0103 78.4625 24.0167 80.7832H27.2917C28.7682 80.7821 30.2132 81.2109 31.45 82.0174C32.6868 82.8238 33.662 83.973 34.2565 85.3246L26.8769 96.0666H33.4269L40.8065 85.3246C40.212 83.973 39.2368 82.8238 38 82.0174C36.7631 81.2109 35.3182 80.7821 33.8417 80.7832Z" fill="#A4C3FD"/>
<path d="M113.533 46.9418C113.533 48.8499 112.817 50.6885 111.528 52.095C110.239 53.5015 108.469 54.3738 106.568 54.5398L103.053 49.409C102.763 48.9848 102.374 48.6378 101.919 48.398C101.464 48.1582 100.958 48.0329 100.444 48.0329C99.93 48.0329 99.4238 48.1582 98.9692 48.398C98.5145 48.6378 98.1252 48.9848 97.835 49.409L94.2979 54.5835H78.5998C76.2836 54.5835 74.0622 53.6634 72.4244 52.0255C70.7866 50.3877 69.8665 48.1664 69.8665 45.8501C69.8665 43.5339 70.7866 41.3126 72.4244 39.6747C74.0622 38.0369 76.2836 37.1168 78.5998 37.1168C79.3973 37.1139 80.1912 37.2241 80.9578 37.4443C81.4417 34.7688 82.9066 32.3702 85.0658 30.7179C87.2251 29.0656 89.9232 28.2785 92.6321 28.5106C95.3411 28.7427 97.8659 29.9774 99.7126 31.9729C101.559 33.9685 102.595 36.5813 102.616 39.3001H105.891C107.918 39.3001 109.862 40.1052 111.295 41.5383C112.728 42.9714 113.533 44.9151 113.533 46.9418Z" fill="#C6D8FB"/>
<path d="M105.892 39.2998H102.617C102.631 37.5793 102.235 35.88 101.462 34.343C100.688 32.806 99.5595 31.4755 98.1692 30.4617C96.7789 29.4479 95.1671 28.78 93.4672 28.5135C91.7673 28.247 90.0284 28.3894 88.3945 28.929C90.6118 29.6141 92.5521 30.9899 93.9323 32.8556C95.3125 34.7212 96.0604 36.9792 96.0668 39.2998H99.3418C100.828 39.3022 102.282 39.7381 103.525 40.5541C104.767 41.3702 105.745 42.5311 106.338 43.8944C106.931 45.2577 107.113 46.7644 106.862 48.2298C106.612 49.6951 105.939 51.0556 104.927 52.1444L106.569 54.5461C108.515 54.3544 110.313 53.424 111.594 51.9462C112.875 50.4685 113.541 48.5559 113.454 46.6023C113.367 44.6486 112.535 42.8026 111.128 41.4441C109.721 40.0857 107.847 39.3183 105.892 39.2998Z" fill="#A4C3FD"/>
<path d="M128.817 87.0927V120.083C128.817 122.399 127.897 124.62 126.259 126.258C124.621 127.896 122.4 128.816 120.083 128.816H43.6667L70.8493 88.9703L94.2983 54.5828L97.8353 49.4083C98.1255 48.9841 98.5148 48.6371 98.9695 48.3973C99.4241 48.1575 99.9303 48.0322 100.444 48.0322C100.958 48.0322 101.465 48.1575 101.919 48.3973C102.374 48.6371 102.763 48.9841 103.053 49.4083L106.569 54.5392L128.817 87.0927Z" fill="#E8EDFC"/>
<path d="M106.568 54.5392L103.053 49.4083C102.763 48.9841 102.374 48.6371 101.919 48.3973C101.464 48.1575 100.958 48.0322 100.444 48.0322C99.93 48.0322 99.4238 48.1575 98.9691 48.3973C98.5145 48.6371 98.1252 48.9841 97.8349 49.4083L97.1799 50.3821L100.018 54.5304L122.266 87.0927V120.083C122.266 122.399 121.346 124.62 119.708 126.258C118.071 127.896 115.849 128.816 113.533 128.816H120.083C122.399 128.816 124.621 127.896 126.258 126.258C127.896 124.62 128.816 122.399 128.816 120.083V87.0927L106.568 54.5392Z" fill="#CAD9FC"/>
<path d="M120.083 10.9169V19.6503H10.9167V10.9169C10.9167 8.6007 11.8369 6.37935 13.4747 4.74153C15.1125 3.10371 17.3339 2.18359 19.6501 2.18359H111.35C113.666 2.18359 115.888 3.10371 117.525 4.74153C119.163 6.37935 120.083 8.6007 120.083 10.9169Z" fill="#E8EDFC"/>
<path d="M111.35 2.18359H104.8C107.116 2.18359 109.338 3.10371 110.975 4.74153C112.613 6.37935 113.533 8.6007 113.533 10.9169V19.6503H120.083V10.9169C120.083 8.6007 119.163 6.37935 117.525 4.74153C115.888 3.10371 113.666 2.18359 111.35 2.18359Z" fill="#CAD9FC"/>
<path d="M70.8493 88.9714L43.6667 128.817H10.9167L33.4269 96.0673L40.8066 85.3253L51.9852 69.0813C52.2766 68.662 52.665 68.3194 53.1174 68.0828C53.5699 67.8462 54.0729 67.7227 54.5834 67.7227C55.094 67.7227 55.597 67.8462 56.0494 68.0828C56.5018 68.3194 56.8903 68.662 57.1816 69.0813L70.8493 88.9714Z" fill="#C6D8FB"/>
<path d="M57.1813 69.0813C56.89 68.662 56.5015 68.3194 56.0491 68.0828C55.5967 67.8462 55.0937 67.7227 54.5831 67.7227C54.0726 67.7227 53.5696 67.8462 53.1171 68.0828C52.6647 68.3194 52.2763 68.662 51.985 69.0813L51.3081 70.0659L64.299 88.9714L37.1165 128.817H43.6665L70.8489 88.9714L57.1813 69.0813Z" fill="#A4C3FD"/>
<path d="M10.9167 128.817H17.4667C15.1505 128.817 12.9291 127.897 11.2913 126.259C9.65347 124.621 8.73335 122.4 8.73335 120.084V28.3836C8.73335 26.0674 9.65347 23.846 11.2913 22.2082C12.9291 20.5704 15.1505 19.6503 17.4667 19.6503V10.9169C17.4667 8.6007 18.3868 6.37935 20.0246 4.74153C21.6624 3.10371 23.8838 2.18359 26.2 2.18359H19.65C17.3338 2.18359 15.1124 3.10371 13.4746 4.74153C11.8368 6.37935 10.9167 8.6007 10.9167 10.9169V19.6503C8.60046 19.6503 6.3791 20.5704 4.74128 22.2082C3.10347 23.846 2.18335 26.0674 2.18335 28.3836V120.084C2.18335 122.4 3.10347 124.621 4.74128 126.259C6.3791 127.897 8.60046 128.817 10.9167 128.817Z" fill="white"/>
<path d="M4.36667 28.3828H0V45.8495H4.36667V28.3828Z" fill="white"/>
<path d="M2.18333 39.3003C3.38916 39.3003 4.36667 38.3227 4.36667 37.1169C4.36667 35.9111 3.38916 34.9336 2.18333 34.9336C0.977512 34.9336 0 35.9111 0 37.1169C0 38.3227 0.977512 39.3003 2.18333 39.3003Z" fill="#0082FA"/>
<path d="M122.267 17.685V10.9167C122.263 8.02245 121.112 5.24777 119.065 3.20125C117.019 1.15473 114.244 0.00346682 111.35 0L19.65 0C16.7558 0.00346682 13.9811 1.15473 11.9346 3.20125C9.88806 5.24777 8.7368 8.02245 8.73333 10.9167V17.685C6.26925 18.1917 4.05521 19.5325 2.46437 21.4813C0.87353 23.43 0.00317571 25.8677 0 28.3833C0 28.9624 0.230029 29.5177 0.639484 29.9272C1.04894 30.3366 1.60428 30.5667 2.18333 30.5667C2.76239 30.5667 3.31773 30.3366 3.72718 29.9272C4.13664 29.5177 4.36667 28.9624 4.36667 28.3833C4.36667 26.6462 5.05675 24.9801 6.28512 23.7518C7.51348 22.5234 9.1795 21.8333 10.9167 21.8333H120.083C121.821 21.8333 123.487 22.5234 124.715 23.7518C125.943 24.9801 126.633 26.6462 126.633 28.3833V80.0323L110.068 55.7973C112.089 54.8507 113.726 53.2431 114.71 51.2401C115.693 49.237 115.964 46.9584 115.477 44.7808C114.99 42.6031 113.775 40.6568 112.032 39.2633C110.289 37.8698 108.123 37.1125 105.892 37.1167H104.619C104.132 34.2556 102.71 31.6369 100.574 29.6718C98.4386 27.7067 95.7109 26.5064 92.8193 26.2593C89.9277 26.0123 87.0359 26.7324 84.5979 28.3066C82.1598 29.8809 80.3136 32.2202 79.3489 34.9574C79.1 34.9333 78.8511 34.9333 78.6 34.9333C75.7047 34.9333 72.928 36.0835 70.8808 38.1308C68.8335 40.178 67.6833 42.9547 67.6833 45.85C67.6833 48.7453 68.8335 51.522 70.8808 53.5693C72.928 55.6165 75.7047 56.7667 78.6 56.7667H90.1717L70.8426 85.1041L58.9827 67.8558C58.4906 67.1443 57.8332 66.5627 57.067 66.161C56.3007 65.7593 55.4485 65.5495 54.5833 65.5495C53.7182 65.5495 52.8659 65.7593 52.0997 66.161C51.3334 66.5627 50.6761 67.1443 50.1839 67.8558L40.7956 81.5279C39.8882 80.6035 38.8062 79.8687 37.6124 79.3661C36.4187 78.8635 35.1369 78.6031 33.8417 78.6H32.5688C32.0825 75.7389 30.6599 73.1203 28.5243 71.1552C26.3886 69.1901 23.6609 67.9898 20.7693 67.7427C17.8777 67.4956 14.9859 68.2157 12.5479 69.79C10.1098 71.3643 8.26355 73.7036 7.29888 76.4407C6.31612 76.3828 5.33003 76.4563 4.36667 76.659V45.85C4.36667 45.2709 4.13664 44.7156 3.72718 44.3061C3.31773 43.8967 2.76239 43.6667 2.18333 43.6667C1.60428 43.6667 1.04894 43.8967 0.639484 44.3061C0.230029 44.7156 0 45.2709 0 45.85L0 120.083C0.00346682 122.978 1.15473 125.752 3.20125 127.799C5.24777 129.845 8.02245 130.997 10.9167 131H120.083C122.978 130.997 125.752 129.845 127.799 127.799C129.845 125.752 130.997 122.978 131 120.083V28.3833C130.997 25.8677 130.126 23.43 128.536 21.4813C126.945 19.5325 124.731 18.1917 122.267 17.685ZM117.9 17.4667H13.1V10.9167C13.1 9.1795 13.7901 7.51348 15.0185 6.28512C16.2468 5.05675 17.9128 4.36667 19.65 4.36667H111.35C113.087 4.36667 114.753 5.05675 115.982 6.28512C117.21 7.51348 117.9 9.1795 117.9 10.9167V17.4667ZM78.6 52.4C76.8628 52.4 75.1968 51.7099 73.9685 50.4816C72.7401 49.2532 72.05 47.5872 72.05 45.85C72.05 44.1128 72.7401 42.4468 73.9685 41.2185C75.1968 39.9901 76.8628 39.3 78.6 39.3C79.1905 39.2971 79.7785 39.3772 80.3467 39.538C80.6414 39.624 80.9508 39.6472 81.2551 39.6062C81.5593 39.5652 81.8515 39.4609 82.113 39.3C82.3757 39.1376 82.6006 38.921 82.7727 38.6645C82.9448 38.4081 83.0601 38.1178 83.1108 37.8132C83.5029 35.6775 84.6766 33.7646 86.4028 32.4475C88.129 31.1304 90.284 30.5035 92.4473 30.6892C94.6107 30.8749 96.6273 31.8598 98.1038 33.4518C99.5803 35.0438 100.411 37.1288 100.433 39.3C100.433 39.8791 100.663 40.4344 101.073 40.8439C101.482 41.2533 102.038 41.4833 102.617 41.4833H105.892C107.192 41.4807 108.451 41.9436 109.44 42.7884C110.429 43.6332 111.082 44.8041 111.283 46.0891C111.483 47.3742 111.217 48.6885 110.533 49.7944C109.848 50.9003 108.791 51.7247 107.551 52.1184L104.85 48.1687C104.357 47.4531 103.697 46.8681 102.928 46.4642C102.159 46.0603 101.302 45.8495 100.433 45.85H100.412C99.5467 45.853 98.6956 46.0664 97.9318 46.4719C97.168 46.8774 96.5143 47.4628 96.0274 48.1774L93.1497 52.4H78.6ZM4.36667 81.1851C5.62865 80.7276 7.001 80.6704 8.29667 81.0213C8.59137 81.1073 8.90081 81.1305 9.20505 81.0895C9.50928 81.0485 9.80155 80.9442 10.063 80.7833C10.3257 80.621 10.5506 80.4043 10.7227 80.1479C10.8948 79.8914 11.0101 79.6011 11.0608 79.2965C11.4529 77.1609 12.6266 75.2479 14.3528 73.9308C16.079 72.6137 18.234 71.9868 20.3973 72.1725C22.5607 72.3582 24.5773 73.3431 26.0538 74.9352C27.5303 76.5272 28.3608 78.6121 28.3833 80.7833C28.3833 81.3624 28.6134 81.9177 29.0228 82.3272C29.4323 82.7366 29.9876 82.9667 30.5667 82.9667H33.8417C34.6991 82.973 35.5426 83.1839 36.3021 83.5818C37.0616 83.9798 37.7152 84.5534 38.2083 85.2548L32.2828 93.8833H6.55C5.80239 93.8656 5.06358 93.7179 4.36667 93.4467V81.1851ZM9.84247 126.524C8.31599 126.27 6.92865 125.484 5.92635 124.305C4.92405 123.126 4.37151 121.631 4.36667 120.083V98.0011C5.08391 98.1592 5.81558 98.2426 6.55 98.25H29.2807L9.84247 126.524ZM15.065 126.633L53.7842 70.3186C53.8749 70.1911 53.9947 70.0871 54.1337 70.0154C54.2727 69.9436 54.4269 69.9062 54.5833 69.9062C54.7398 69.9062 54.894 69.9436 55.033 70.0154C55.172 70.0871 55.2918 70.1911 55.3824 70.3186L68.203 88.973L42.5139 126.633H15.065ZM126.633 120.083C126.633 121.821 125.943 123.487 124.715 124.715C123.487 125.943 121.821 126.633 120.083 126.633H47.7997L99.6408 50.6359C99.7273 50.5053 99.8452 50.3985 99.9836 50.3253C100.122 50.252 100.277 50.2147 100.433 50.2167C100.594 50.2141 100.753 50.2515 100.895 50.3254C101.038 50.3994 101.16 50.5075 101.25 50.6402L126.633 87.77V120.083Z" fill="#0082FA"/>
<path d="M41.4832 41.4828C41.4832 38.8919 40.7149 36.3591 39.2755 34.2048C37.836 32.0506 35.7901 30.3715 33.3964 29.38C31.0027 28.3885 28.3687 28.1291 25.8275 28.6345C23.2864 29.14 20.9522 30.3877 19.1201 32.2197C17.288 34.0518 16.0404 36.386 15.5349 38.9271C15.0295 41.4683 15.2889 44.1023 16.2804 46.496C17.2719 48.8897 18.951 50.9356 21.1052 52.3751C23.2595 53.8145 25.7923 54.5828 28.3832 54.5828C31.8565 54.5793 35.1865 53.1981 37.6425 50.7421C40.0985 48.2861 41.4797 44.9561 41.4832 41.4828ZM19.6499 41.4828C19.6499 39.7555 20.1621 38.067 21.1217 36.6308C22.0813 35.1946 23.4453 34.0753 25.0411 33.4143C26.6369 32.7533 28.3929 32.5803 30.087 32.9173C31.7811 33.2543 33.3372 34.086 34.5586 35.3074C35.78 36.5288 36.6118 38.0849 36.9487 39.779C37.2857 41.4731 37.1128 43.2291 36.4518 44.8249C35.7908 46.4207 34.6714 47.7847 33.2352 48.7443C31.799 49.7039 30.1105 50.2162 28.3832 50.2162C26.067 50.2162 23.8456 49.296 22.2078 47.6582C20.57 46.0204 19.6499 43.799 19.6499 41.4828Z" fill="#0082FA"/>
</g>
<defs>
<clipPath id="clip0">
<rect width="131" height="131" fill="white"/>
</clipPath>
</defs>
</svg>
