<svg xmlns="http://www.w3.org/2000/svg">
  <defs>
    <g id="facebook" width="32" height="32" viewBox="0 0 32 32" fill="none" xmlns="http://www.w3.org/2000/svg">
      <path d="M14.9997 25.3332C14.9997 25.8855 15.4474 26.3332 15.9997 26.3332C16.552 26.3332 16.9997 25.8855 16.9997 25.3332H14.9997ZM16.9997 14.6665C16.9997 14.1142 16.552 13.6665 15.9997 13.6665C15.4474 13.6665 14.9997 14.1142 14.9997 14.6665H16.9997ZM19.9997 7.6665C20.552 7.6665 20.9997 7.21879 20.9997 6.6665C20.9997 6.11422 20.552 5.6665 19.9997 5.6665V7.6665ZM15.9997 10.6665H14.9997H15.9997ZM14.9997 14.6665C14.9997 15.2188 15.4474 15.6665 15.9997 15.6665C16.552 15.6665 16.9997 15.2188 16.9997 14.6665H14.9997ZM15.9997 13.6665C15.4474 13.6665 14.9997 14.1142 14.9997 14.6665C14.9997 15.2188 15.4474 15.6665 15.9997 15.6665V13.6665ZM18.6663 15.6665C19.2186 15.6665 19.6663 15.2188 19.6663 14.6665C19.6663 14.1142 19.2186 13.6665 18.6663 13.6665V15.6665ZM15.9997 15.6665C16.552 15.6665 16.9997 15.2188 16.9997 14.6665C16.9997 14.1142 16.552 13.6665 15.9997 13.6665V15.6665ZM13.333 13.6665C12.7807 13.6665 12.333 14.1142 12.333 14.6665C12.333 15.2188 12.7807 15.6665 13.333 15.6665V13.6665ZM16.9997 25.3332V14.6665H14.9997V25.3332H16.9997ZM19.9997 5.6665C17.2383 5.6665 14.9997 7.90508 14.9997 10.6665H16.9997C16.9997 9.00965 18.3428 7.6665 19.9997 7.6665V5.6665ZM14.9997 10.6665V14.6665H16.9997V10.6665H14.9997ZM15.9997 15.6665H18.6663V13.6665H15.9997V15.6665ZM15.9997 13.6665H13.333V15.6665H15.9997V13.6665Z" fill="#4A78EC"/>
    </g>

    <g id="instagram" width="32" height="32" viewBox="0 0 32 32" fill="none" xmlns="http://www.w3.org/2000/svg">
      <path fill-rule="evenodd" clip-rule="evenodd" d="M20.0003 6.6665H12.0003C9.05481 6.6665 6.66699 9.05432 6.66699 11.9998V19.9998C6.66699 22.9454 9.05481 25.3332 12.0003 25.3332H20.0003C22.9458 25.3332 25.3337 22.9454 25.3337 19.9998V11.9998C25.3337 9.05432 22.9458 6.6665 20.0003 6.6665Z" stroke="#4A78EC" stroke-width="2" stroke-linecap="round" stroke-linejoin="round"/>
      <path fill-rule="evenodd" clip-rule="evenodd" d="M16 20C13.7909 20 12 18.2091 12 16C12 13.7909 13.7909 12 16 12C18.2091 12 20 13.7909 20 16C20 17.0609 19.5786 18.0783 18.8284 18.8284C18.0783 19.5786 17.0609 20 16 20Z" stroke="#4A78EC" stroke-width="2" stroke-linecap="round" stroke-linejoin="round"/>
      <rect x="20" y="12" width="2.66667" height="2.66667" rx="1" transform="rotate(-90 20 12)" fill="#4A78EC"/>
      <rect x="20.667" y="11.3335" width="1.33333" height="1.33333" rx="0.5" transform="rotate(-90 20.667 11.3335)" stroke="#4A78EC" stroke-width="2" stroke-linecap="round"/>
    </g>

    <g id="whatsapp" width="32" height="32" viewBox="0 0 32 32" fill="none" xmlns="http://www.w3.org/2000/svg">
      <path fill-rule="evenodd" clip-rule="evenodd" d="M17.3337 25.3333C21.4879 25.3324 25.1416 22.5859 26.2969 18.5955C27.4522 14.6051 25.831 10.3315 22.3198 8.1113C18.8086 5.89111 14.2526 6.25888 11.1429 9.01352C8.03328 11.7682 7.11859 16.2465 8.89899 19.9999L6.66699 25.3333L12.523 23.9999C13.9749 24.875 15.6385 25.3361 17.3337 25.3333Z" stroke="#4A78EC" stroke-width="2" stroke-linecap="round" stroke-linejoin="round"/>
      <path fill-rule="evenodd" clip-rule="evenodd" d="M14.7218 14.7546C13.9627 14.748 13.3521 14.1285 13.3565 13.3694C13.3609 12.6103 13.9786 11.9978 14.7377 12C15.4969 12.0022 16.1111 12.6182 16.1111 13.3773C16.1074 14.1411 15.4856 14.7576 14.7218 14.7546V14.7546Z" stroke="#4A78EC" stroke-width="2" stroke-linecap="round" stroke-linejoin="round"/>
      <path fill-rule="evenodd" clip-rule="evenodd" d="M18.5567 18.557C18.5524 19.1193 18.8876 19.6285 19.4058 19.8468C19.9239 20.0651 20.5226 19.9492 20.9218 19.5534C21.3211 19.1576 21.4422 18.56 21.2284 18.04C21.0146 17.5199 20.5083 17.1803 19.946 17.1797C19.1822 17.1767 18.5604 17.7932 18.5567 18.557V18.557Z" stroke="#4A78EC" stroke-width="2" stroke-linecap="round" stroke-linejoin="round"/>
      <path d="M13.334 13.3774C13.3154 18.0001 17.734 20.4401 19.946 19.9348" stroke="#4A78EC" stroke-width="2" stroke-linecap="round"/>
    </g>

    <g id="youtube" width="32" height="32" viewBox="0 0 32 32" fill="none" xmlns="http://www.w3.org/2000/svg">
      <path fill-rule="evenodd" clip-rule="evenodd" d="M23.5577 25.3369C26.6301 25.4488 29.2137 23.0531 29.3337 19.9809V12.0263C29.2137 8.95409 26.6301 6.55841 23.5577 6.67027H8.44299C5.3705 6.55841 2.78697 8.95409 2.66699 12.0263V19.9809C2.78697 23.0531 5.3705 25.4488 8.44299 25.3369H23.5577Z" stroke="#4A78EC" stroke-width="2" stroke-linecap="round" stroke-linejoin="round"/>
      <path fill-rule="evenodd" clip-rule="evenodd" d="M15.3447 12.237L19.5593 15.101C19.8324 15.2604 20.0002 15.5528 20.0002 15.869C20.0002 16.1851 19.8324 16.4775 19.5593 16.637L15.3447 19.7703C14.5447 20.313 13.334 19.8503 13.334 19.0023V13.0023C13.334 12.1583 14.546 11.6943 15.3447 12.237Z" stroke="#4A78EC" stroke-width="2" stroke-linecap="round" stroke-linejoin="round"/>
    </g>


    <g id="facebook-light" width="32" height="32" viewBox="0 0 32 32" fill="none" xmlns="http://www.w3.org/2000/svg">
      <path d="M14.9997 25.3332C14.9997 25.8855 15.4474 26.3332 15.9997 26.3332C16.552 26.3332 16.9997 25.8855 16.9997 25.3332H14.9997ZM16.9997 14.6665C16.9997 14.1142 16.552 13.6665 15.9997 13.6665C15.4474 13.6665 14.9997 14.1142 14.9997 14.6665H16.9997ZM19.9997 7.6665C20.552 7.6665 20.9997 7.21879 20.9997 6.6665C20.9997 6.11422 20.552 5.6665 19.9997 5.6665V7.6665ZM15.9997 10.6665H14.9997H15.9997ZM14.9997 14.6665C14.9997 15.2188 15.4474 15.6665 15.9997 15.6665C16.552 15.6665 16.9997 15.2188 16.9997 14.6665H14.9997ZM15.9997 13.6665C15.4474 13.6665 14.9997 14.1142 14.9997 14.6665C14.9997 15.2188 15.4474 15.6665 15.9997 15.6665V13.6665ZM18.6663 15.6665C19.2186 15.6665 19.6663 15.2188 19.6663 14.6665C19.6663 14.1142 19.2186 13.6665 18.6663 13.6665V15.6665ZM15.9997 15.6665C16.552 15.6665 16.9997 15.2188 16.9997 14.6665C16.9997 14.1142 16.552 13.6665 15.9997 13.6665V15.6665ZM13.333 13.6665C12.7807 13.6665 12.333 14.1142 12.333 14.6665C12.333 15.2188 12.7807 15.6665 13.333 15.6665V13.6665ZM16.9997 25.3332V14.6665H14.9997V25.3332H16.9997ZM19.9997 5.6665C17.2383 5.6665 14.9997 7.90508 14.9997 10.6665H16.9997C16.9997 9.00965 18.3428 7.6665 19.9997 7.6665V5.6665ZM14.9997 10.6665V14.6665H16.9997V10.6665H14.9997ZM15.9997 15.6665H18.6663V13.6665H15.9997V15.6665ZM15.9997 13.6665H13.333V15.6665H15.9997V13.6665Z" fill="#fff"/>
    </g>

    <g id="instagram-light" width="32" height="32" viewBox="0 0 32 32" fill="none" xmlns="http://www.w3.org/2000/svg">
      <path fill-rule="evenodd" clip-rule="evenodd" d="M20.0003 6.6665H12.0003C9.05481 6.6665 6.66699 9.05432 6.66699 11.9998V19.9998C6.66699 22.9454 9.05481 25.3332 12.0003 25.3332H20.0003C22.9458 25.3332 25.3337 22.9454 25.3337 19.9998V11.9998C25.3337 9.05432 22.9458 6.6665 20.0003 6.6665Z" stroke="#fff" stroke-width="2" stroke-linecap="round" stroke-linejoin="round"/>
      <path fill-rule="evenodd" clip-rule="evenodd" d="M16 20C13.7909 20 12 18.2091 12 16C12 13.7909 13.7909 12 16 12C18.2091 12 20 13.7909 20 16C20 17.0609 19.5786 18.0783 18.8284 18.8284C18.0783 19.5786 17.0609 20 16 20Z" stroke="#fff" stroke-width="2" stroke-linecap="round" stroke-linejoin="round"/>
      <rect x="20" y="12" width="2.66667" height="2.66667" rx="1" transform="rotate(-90 20 12)" fill="#fff"/>
      <rect x="20.667" y="11.3335" width="1.33333" height="1.33333" rx="0.5" transform="rotate(-90 20.667 11.3335)" stroke="#fff" stroke-width="2" stroke-linecap="round"/>
    </g>

    <g id="whatsapp-light" width="32" height="32" viewBox="0 0 32 32" fill="none" xmlns="http://www.w3.org/2000/svg">
      <path fill-rule="evenodd" clip-rule="evenodd" d="M17.3337 25.3333C21.4879 25.3324 25.1416 22.5859 26.2969 18.5955C27.4522 14.6051 25.831 10.3315 22.3198 8.1113C18.8086 5.89111 14.2526 6.25888 11.1429 9.01352C8.03328 11.7682 7.11859 16.2465 8.89899 19.9999L6.66699 25.3333L12.523 23.9999C13.9749 24.875 15.6385 25.3361 17.3337 25.3333Z" stroke="#fff" stroke-width="2" stroke-linecap="round" stroke-linejoin="round"/>
      <path fill-rule="evenodd" clip-rule="evenodd" d="M14.7218 14.7546C13.9627 14.748 13.3521 14.1285 13.3565 13.3694C13.3609 12.6103 13.9786 11.9978 14.7377 12C15.4969 12.0022 16.1111 12.6182 16.1111 13.3773C16.1074 14.1411 15.4856 14.7576 14.7218 14.7546V14.7546Z" stroke="#fff" stroke-width="2" stroke-linecap="round" stroke-linejoin="round"/>
      <path fill-rule="evenodd" clip-rule="evenodd" d="M18.5567 18.557C18.5524 19.1193 18.8876 19.6285 19.4058 19.8468C19.9239 20.0651 20.5226 19.9492 20.9218 19.5534C21.3211 19.1576 21.4422 18.56 21.2284 18.04C21.0146 17.5199 20.5083 17.1803 19.946 17.1797C19.1822 17.1767 18.5604 17.7932 18.5567 18.557V18.557Z" stroke="#fff" stroke-width="2" stroke-linecap="round" stroke-linejoin="round"/>
      <path d="M13.334 13.3774C13.3154 18.0001 17.734 20.4401 19.946 19.9348" stroke="#fff" stroke-width="2" stroke-linecap="round"/>
    </g>

    <g id="youtube-light" width="32" height="32" viewBox="0 0 32 32" fill="none" xmlns="http://www.w3.org/2000/svg">
      <path fill-rule="evenodd" clip-rule="evenodd" d="M23.5577 25.3369C26.6301 25.4488 29.2137 23.0531 29.3337 19.9809V12.0263C29.2137 8.95409 26.6301 6.55841 23.5577 6.67027H8.44299C5.3705 6.55841 2.78697 8.95409 2.66699 12.0263V19.9809C2.78697 23.0531 5.3705 25.4488 8.44299 25.3369H23.5577Z" stroke="#fff" stroke-width="2" stroke-linecap="round" stroke-linejoin="round"/>
      <path fill-rule="evenodd" clip-rule="evenodd" d="M15.3447 12.237L19.5593 15.101C19.8324 15.2604 20.0002 15.5528 20.0002 15.869C20.0002 16.1851 19.8324 16.4775 19.5593 16.637L15.3447 19.7703C14.5447 20.313 13.334 19.8503 13.334 19.0023V13.0023C13.334 12.1583 14.546 11.6943 15.3447 12.237Z" stroke="#fff" stroke-width="2" stroke-linecap="round" stroke-linejoin="round"/>
    </g>


    <g id="facebook-dark" width="32" height="32" viewBox="0 0 32 32" fill="none" xmlns="http://www.w3.org/2000/svg">
      <path d="M14.9997 25.3332C14.9997 25.8855 15.4474 26.3332 15.9997 26.3332C16.552 26.3332 16.9997 25.8855 16.9997 25.3332H14.9997ZM16.9997 14.6665C16.9997 14.1142 16.552 13.6665 15.9997 13.6665C15.4474 13.6665 14.9997 14.1142 14.9997 14.6665H16.9997ZM19.9997 7.6665C20.552 7.6665 20.9997 7.21879 20.9997 6.6665C20.9997 6.11422 20.552 5.6665 19.9997 5.6665V7.6665ZM15.9997 10.6665H14.9997H15.9997ZM14.9997 14.6665C14.9997 15.2188 15.4474 15.6665 15.9997 15.6665C16.552 15.6665 16.9997 15.2188 16.9997 14.6665H14.9997ZM15.9997 13.6665C15.4474 13.6665 14.9997 14.1142 14.9997 14.6665C14.9997 15.2188 15.4474 15.6665 15.9997 15.6665V13.6665ZM18.6663 15.6665C19.2186 15.6665 19.6663 15.2188 19.6663 14.6665C19.6663 14.1142 19.2186 13.6665 18.6663 13.6665V15.6665ZM15.9997 15.6665C16.552 15.6665 16.9997 15.2188 16.9997 14.6665C16.9997 14.1142 16.552 13.6665 15.9997 13.6665V15.6665ZM13.333 13.6665C12.7807 13.6665 12.333 14.1142 12.333 14.6665C12.333 15.2188 12.7807 15.6665 13.333 15.6665V13.6665ZM16.9997 25.3332V14.6665H14.9997V25.3332H16.9997ZM19.9997 5.6665C17.2383 5.6665 14.9997 7.90508 14.9997 10.6665H16.9997C16.9997 9.00965 18.3428 7.6665 19.9997 7.6665V5.6665ZM14.9997 10.6665V14.6665H16.9997V10.6665H14.9997ZM15.9997 15.6665H18.6663V13.6665H15.9997V15.6665ZM15.9997 13.6665H13.333V15.6665H15.9997V13.6665Z" fill="#042051"/>
    </g>

    <g id="instagram-dark" width="32" height="32" viewBox="0 0 32 32" fill="none" xmlns="http://www.w3.org/2000/svg">
      <path fill-rule="evenodd" clip-rule="evenodd" d="M20.0003 6.6665H12.0003C9.05481 6.6665 6.66699 9.05432 6.66699 11.9998V19.9998C6.66699 22.9454 9.05481 25.3332 12.0003 25.3332H20.0003C22.9458 25.3332 25.3337 22.9454 25.3337 19.9998V11.9998C25.3337 9.05432 22.9458 6.6665 20.0003 6.6665Z" stroke="#042051" stroke-width="2" stroke-linecap="round" stroke-linejoin="round"/>
      <path fill-rule="evenodd" clip-rule="evenodd" d="M16 20C13.7909 20 12 18.2091 12 16C12 13.7909 13.7909 12 16 12C18.2091 12 20 13.7909 20 16C20 17.0609 19.5786 18.0783 18.8284 18.8284C18.0783 19.5786 17.0609 20 16 20Z" stroke="#042051" stroke-width="2" stroke-linecap="round" stroke-linejoin="round"/>
      <rect x="20" y="12" width="2.66667" height="2.66667" rx="1" transform="rotate(-90 20 12)" fill="#042051"/>
      <rect x="20.667" y="11.3335" width="1.33333" height="1.33333" rx="0.5" transform="rotate(-90 20.667 11.3335)" stroke="#042051" stroke-width="2" stroke-linecap="round"/>
    </g>

    <g id="whatsapp-dark" width="32" height="32" viewBox="0 0 32 32" fill="none" xmlns="http://www.w3.org/2000/svg">
      <path fill-rule="evenodd" clip-rule="evenodd" d="M17.3337 25.3333C21.4879 25.3324 25.1416 22.5859 26.2969 18.5955C27.4522 14.6051 25.831 10.3315 22.3198 8.1113C18.8086 5.89111 14.2526 6.25888 11.1429 9.01352C8.03328 11.7682 7.11859 16.2465 8.89899 19.9999L6.66699 25.3333L12.523 23.9999C13.9749 24.875 15.6385 25.3361 17.3337 25.3333Z" stroke="#042051" stroke-width="2" stroke-linecap="round" stroke-linejoin="round"/>
      <path fill-rule="evenodd" clip-rule="evenodd" d="M14.7218 14.7546C13.9627 14.748 13.3521 14.1285 13.3565 13.3694C13.3609 12.6103 13.9786 11.9978 14.7377 12C15.4969 12.0022 16.1111 12.6182 16.1111 13.3773C16.1074 14.1411 15.4856 14.7576 14.7218 14.7546V14.7546Z" stroke="#042051" stroke-width="2" stroke-linecap="round" stroke-linejoin="round"/>
      <path fill-rule="evenodd" clip-rule="evenodd" d="M18.5567 18.557C18.5524 19.1193 18.8876 19.6285 19.4058 19.8468C19.9239 20.0651 20.5226 19.9492 20.9218 19.5534C21.3211 19.1576 21.4422 18.56 21.2284 18.04C21.0146 17.5199 20.5083 17.1803 19.946 17.1797C19.1822 17.1767 18.5604 17.7932 18.5567 18.557V18.557Z" stroke="#042051" stroke-width="2" stroke-linecap="round" stroke-linejoin="round"/>
      <path d="M13.334 13.3774C13.3154 18.0001 17.734 20.4401 19.946 19.9348" stroke="#042051" stroke-width="2" stroke-linecap="round"/>
    </g>

    <g id="youtube-dark" width="32" height="32" viewBox="0 0 32 32" fill="none" xmlns="http://www.w3.org/2000/svg">
      <path fill-rule="evenodd" clip-rule="evenodd" d="M23.5577 25.3369C26.6301 25.4488 29.2137 23.0531 29.3337 19.9809V12.0263C29.2137 8.95409 26.6301 6.55841 23.5577 6.67027H8.44299C5.3705 6.55841 2.78697 8.95409 2.66699 12.0263V19.9809C2.78697 23.0531 5.3705 25.4488 8.44299 25.3369H23.5577Z" stroke="#042051" stroke-width="2" stroke-linecap="round" stroke-linejoin="round"/>
      <path fill-rule="evenodd" clip-rule="evenodd" d="M15.3447 12.237L19.5593 15.101C19.8324 15.2604 20.0002 15.5528 20.0002 15.869C20.0002 16.1851 19.8324 16.4775 19.5593 16.637L15.3447 19.7703C14.5447 20.313 13.334 19.8503 13.334 19.0023V13.0023C13.334 12.1583 14.546 11.6943 15.3447 12.237Z" stroke="#042051" stroke-width="2" stroke-linecap="round" stroke-linejoin="round"/>
    </g>

    <g id="eye-slashed" width="24" height="24" viewBox="0 0 24 24" fill="none" xmlns="http://www.w3.org/2000/svg">
      <path d="M12 9.279C12.4142 9.279 12.75 8.94321 12.75 8.529C12.75 8.11479 12.4142 7.779 12 7.779V9.279ZM7.28691 17.0545C7.65666 17.2412 8.10776 17.0928 8.29448 16.7231C8.4812 16.3533 8.33283 15.9022 7.96309 15.7155L7.28691 17.0545ZM11.25 8.529C11.25 8.94321 11.5858 9.279 12 9.279C12.4142 9.279 12.75 8.94321 12.75 8.529H11.25ZM12.75 5C12.75 4.58579 12.4142 4.25 12 4.25C11.5858 4.25 11.25 4.58579 11.25 5H12.75ZM11.9976 7.779C11.5834 7.78034 11.2487 8.11721 11.25 8.53142C11.2513 8.94563 11.5882 9.28033 12.0024 9.279L11.9976 7.779ZM14.5727 9.61167C14.9729 9.71841 15.3839 9.48051 15.4907 9.08029C15.5974 8.68006 15.3595 8.26908 14.9593 8.16233L14.5727 9.61167ZM6.54684 6.43163C6.36272 6.06058 5.91268 5.90905 5.54163 6.09316C5.17058 6.27728 5.01905 6.72732 5.20316 7.09837L6.54684 6.43163ZM6.64216 9.99837C6.82628 10.3694 7.27632 10.521 7.64737 10.3368C8.01842 10.1527 8.16995 9.70268 7.98584 9.33163L6.64216 9.99837ZM7.07341 19.4918C6.79275 19.7965 6.81219 20.2709 7.11682 20.5516C7.42146 20.8323 7.89594 20.8128 8.17659 20.5082L7.07341 19.4918ZM10.7516 17.7132C11.0323 17.4085 11.0128 16.9341 10.7082 16.6534C10.4035 16.3727 9.92906 16.3922 9.64841 16.6968L10.7516 17.7132ZM19.5518 8.155C19.8323 7.85027 19.8127 7.3758 19.508 7.09524C19.2033 6.81468 18.7288 6.83427 18.4482 7.139L19.5518 8.155ZM16.4282 9.333C16.1477 9.63773 16.1673 10.1122 16.472 10.3928C16.7767 10.6733 17.2512 10.6537 17.5318 10.349L16.4282 9.333ZM9.64841 16.6968C9.36775 17.0015 9.38718 17.4759 9.69182 17.7566C9.99645 18.0373 10.4709 18.0178 10.7516 17.7132L9.64841 16.6968ZM12.6 14.6L13.1516 15.1082L13.1523 15.1074L12.6 14.6ZM13.685 13.419L13.1333 12.9109L13.1327 12.9116L13.685 13.419ZM17.5317 10.3491C17.8123 10.0444 17.7928 9.5699 17.4881 9.2893C17.1834 9.00871 16.7089 9.02824 16.4283 9.33294L17.5317 10.3491ZM10.323 16.4652C9.91442 16.3972 9.5281 16.6734 9.46016 17.082C9.39221 17.4906 9.66837 17.8769 10.077 17.9448L10.323 16.4652ZM12 17.353L12 16.603H11.9995L12 17.353ZM19 12.941H19.75C19.75 12.9232 19.7494 12.9055 19.7481 12.8877L19 12.941ZM17.3309 9.17814C16.9648 8.98435 16.5109 9.12403 16.3171 9.49011C16.1234 9.8562 16.263 10.3101 16.6291 10.5039L17.3309 9.17814ZM9.97166 14.4167C10.2139 14.7526 10.6827 14.8286 11.0187 14.5863C11.3546 14.3441 11.4306 13.8753 11.1883 13.5393L9.97166 14.4167ZM10.437 12.1447L11.106 12.4838L10.437 12.1447ZM12 11.176L11.9991 10.426L11.994 10.426L12 11.176ZM12.5229 12.0756C12.8739 12.2955 13.3367 12.1892 13.5566 11.8381C13.7765 11.4871 13.6702 11.0243 13.3191 10.8044L12.5229 12.0756ZM12 7.779C9.94777 7.779 8.0544 8.30173 6.65036 9.18663C5.25606 10.0654 4.25 11.3737 4.25 12.941H5.75C5.75 12.0713 6.31094 11.1736 7.45014 10.4556C8.5796 9.74377 10.1862 9.279 12 9.279V7.779ZM4.25 12.941C4.25 14.7344 5.55973 16.1823 7.28691 17.0545L7.96309 15.7155C6.49027 14.9718 5.75 13.9336 5.75 12.941H4.25ZM12.75 8.529V5H11.25V8.529H12.75ZM12.0024 9.279C12.8701 9.27619 13.7343 9.38805 14.5727 9.61167L14.9593 8.16233C13.9932 7.90467 12.9974 7.77578 11.9976 7.779L12.0024 9.279ZM5.20316 7.09837L6.64216 9.99837L7.98584 9.33163L6.54684 6.43163L5.20316 7.09837ZM8.17659 20.5082L10.7516 17.7132L9.64841 16.6968L7.07341 19.4918L8.17659 20.5082ZM18.4482 7.139L16.4282 9.333L17.5318 10.349L19.5518 8.155L18.4482 7.139ZM10.7516 17.7132L13.1516 15.1082L12.0484 14.0918L9.64841 16.6968L10.7516 17.7132ZM13.1523 15.1074L14.2373 13.9264L13.1327 12.9116L12.0477 14.0926L13.1523 15.1074ZM14.2367 13.9271L17.5317 10.3491L16.4283 9.33294L13.1333 12.9109L14.2367 13.9271ZM10.077 17.9448C10.7127 18.0506 11.3561 18.1035 12.0005 18.103L11.9995 16.603C11.4378 16.6034 10.8771 16.5573 10.323 16.4652L10.077 17.9448ZM12 18.103C14.0522 18.103 15.9456 17.5803 17.3496 16.6954C18.7439 15.8166 19.75 14.5083 19.75 12.941H18.25C18.25 13.8107 17.6891 14.7084 16.5499 15.4264C15.4204 16.1382 13.8138 16.603 12 16.603V18.103ZM19.7481 12.8877C19.6363 11.317 18.7226 9.91487 17.3309 9.17814L16.6291 10.5039C17.5634 10.9985 18.1768 11.9398 18.2519 12.9943L19.7481 12.8877ZM11.1883 13.5393C10.9657 13.2306 10.9339 12.8233 11.106 12.4838L9.76803 11.8057C9.34236 12.6456 9.42092 13.6529 9.97166 14.4167L11.1883 13.5393ZM11.106 12.4838C11.2781 12.1442 11.6253 11.929 12.006 11.926L11.994 10.426C11.0524 10.4335 10.1937 10.9658 9.76803 11.8057L11.106 12.4838ZM12.0009 11.926C12.1855 11.9258 12.3664 11.9776 12.5229 12.0756L13.3191 10.8044C12.9235 10.5566 12.4659 10.4254 11.9991 10.426L12.0009 11.926Z" fill="#042051"/>
    </g>

    <g id="logo" width="260" height="49" viewBox="0 0 260 49" fill="none" xmlns="http://www.w3.org/2000/svg">
      <g clip-path="url(#clip0_469_2303)">
      <path d="M32.062 12.0506C32.062 8.42594 30.8573 5.72098 28.4478 3.93572C26.0384 2.15045 22.9171 1.25781 19.0839 1.25781H-0.0546875V39.2894H8.32358V25.4671H15.4697L23.6016 39.3706H33.0477L24.0123 23.8712C28.6943 21.8695 32.062 17.9474 32.062 12.0506ZM8.32358 7.83085H16.7018C18.8649 7.83085 20.5898 8.18249 21.8767 8.88578C23.1635 9.58907 23.7932 10.9415 23.7932 12.9432C23.7932 18.299 21.2743 19.408 16.3459 19.408H8.32358V7.83085Z" fill="#4A78EC"/>
      <path d="M46.08 10.9414C42.0004 10.9414 38.6601 12.3209 36.0316 15.107C33.4031 17.8931 32.0889 21.4096 32.0889 25.6834C32.0889 30.0384 33.4031 33.5278 36.0042 36.1516C38.6053 38.7754 42.0552 40.1008 46.3538 40.1008C49.5573 40.1008 52.3227 39.2893 54.6499 37.6393C56.9772 35.9893 58.5653 33.7171 59.4414 30.7417H52.0762C51.0084 33.4196 49.0918 34.745 46.4086 34.745C44.3551 34.745 42.767 34.1229 41.6171 32.8786C40.4945 31.6343 39.8922 29.822 39.8648 27.4416H59.8795V26.6842C59.8795 21.8424 58.6474 18.0013 56.1558 15.1611C53.6369 12.348 50.2965 10.9414 46.08 10.9414ZM39.8648 22.6268C40.0838 20.7063 40.7409 19.1915 41.8635 18.0825C42.9861 16.9735 44.3825 16.4325 46.08 16.4325C47.8871 16.4325 49.2835 17.0005 50.2965 18.1636C51.3096 19.3268 51.912 20.8145 52.0762 22.6268H39.8648Z" fill="#4A78EC"/>
      <path d="M166.661 11.1038C162.938 11.1038 160.008 12.4293 157.845 15.1072V1.25781H150.233V39.2894H157.544L157.489 35.8271C159.46 38.6403 162.39 40.0468 166.251 40.0468C169.92 40.0468 172.904 38.6944 175.204 35.9624C177.504 33.2304 178.626 29.6598 178.626 25.2507C178.626 21.1663 177.559 17.7851 175.423 15.1072C173.287 12.4293 170.385 11.1038 166.661 11.1038ZM169.071 31.6074C167.866 33.1762 166.278 33.9607 164.279 33.9607C162.198 33.9607 160.556 33.2033 159.351 31.6615C158.174 30.1197 157.571 28.0368 157.571 25.3589C157.571 22.7622 158.174 20.7064 159.378 19.1916C160.583 17.6769 162.226 16.9195 164.279 16.9195C166.251 16.9195 167.866 17.6769 169.071 19.2187C170.276 20.7605 170.878 22.7892 170.878 25.3048C170.878 27.9286 170.276 30.0385 169.071 31.6074Z" fill="#042051"/>
      <path d="M138.789 25.9271C138.789 31.1206 136.763 33.7173 132.738 33.7173C131.698 33.7173 130.849 33.555 130.164 33.2575C129.507 32.96 129.014 32.4731 128.741 31.8509C128.439 31.2017 128.275 30.5796 128.166 29.9575C128.084 29.3353 128.029 28.4968 128.029 27.4689V11.7261H120.308V30.255C120.308 33.5009 121.156 35.9354 122.881 37.5854C124.606 39.2354 126.988 40.074 130.055 40.074C133.943 40.074 136.982 38.5051 139.145 35.3674V39.2625H146.455V11.7261H138.844L138.789 25.9271Z" fill="#042051"/>
      <path d="M105.112 10.9956C101.361 10.9956 98.4859 12.3751 96.4598 15.1612V11.7259H89.2041V49.0543H96.8157V35.8541C98.7871 38.5861 101.662 39.9657 105.413 39.9657C109.055 39.9657 111.984 38.6673 114.202 36.0435C116.42 33.4197 117.515 29.9573 117.515 25.6564C117.515 21.1933 116.392 17.6498 114.12 14.9719C111.875 12.321 108.863 10.9956 105.112 10.9956ZM108.124 31.8237C106.946 33.3115 105.331 34.0689 103.277 34.0689C101.197 34.0689 99.5537 33.3115 98.349 31.8237C97.1717 30.336 96.5693 28.2532 96.5693 25.5753C96.5693 22.8974 97.1443 20.8146 98.3216 19.3269C99.499 17.8391 101.114 17.0817 103.223 17.0817C105.276 17.0817 106.892 17.8391 108.096 19.381C109.274 20.9228 109.876 23.0056 109.876 25.6835C109.876 28.2803 109.301 30.309 108.124 31.8237Z" fill="#042051"/>
      <path d="M189.168 1.25781H181.502V39.2894H189.168V1.25781Z" fill="#042051"/>
      <path d="M259.124 31.8236V19.9218C259.124 13.9439 255.071 10.9414 246.967 10.9414C238.78 10.9414 234.482 14.0521 234.044 20.2464H241.245C241.491 18.6776 242.039 17.5956 242.86 16.9735C243.681 16.3513 244.996 16.0267 246.748 16.0267C250.088 16.0267 251.786 17.2439 251.786 19.7055C251.786 20.7604 251.32 21.4907 250.417 21.8965C249.513 22.3022 247.679 22.6539 244.996 23.0055C243.764 23.1407 242.805 23.276 242.121 23.4112C241.436 23.5465 240.533 23.7088 239.41 23.9793C238.288 24.2227 237.411 24.5473 236.782 24.9531C236.152 25.3318 235.495 25.8457 234.783 26.4408C234.071 27.0359 233.578 27.7933 233.277 28.6859C232.976 29.5785 232.812 30.6064 232.812 31.7695C232.812 34.3663 233.688 36.395 235.467 37.8827C237.247 39.3705 239.657 40.1008 242.778 40.1008C246.447 40.1008 249.459 38.9377 251.813 36.6385C251.923 37.6934 252.114 38.586 252.361 39.3164H260.109C259.452 37.8016 259.124 35.313 259.124 31.8236ZM251.731 28.9834C251.731 30.904 251.101 32.4187 249.869 33.5007C248.637 34.5827 246.967 35.1237 244.913 35.1237C243.572 35.1237 242.531 34.7991 241.792 34.1228C241.053 33.4737 240.697 32.554 240.697 31.4179C240.697 30.2548 241.08 29.308 241.874 28.6318C242.559 28.0908 244.037 27.658 246.31 27.3064C249.02 26.8736 250.828 26.3867 251.704 25.8727L251.731 28.9834Z" fill="#042051"/>
      <path d="M218.382 34.2042C216.329 34.2042 214.741 33.4468 213.591 31.932C212.468 30.4173 211.893 28.2803 211.893 25.5483C211.893 22.7352 212.468 20.5442 213.645 18.9483C214.823 17.3523 216.438 16.5679 218.546 16.5679C221.64 16.5679 223.475 18.1638 224.05 21.3286H231.552C231.223 18.1368 229.882 15.5941 227.554 13.7277C225.2 11.8613 222.188 10.9146 218.464 10.9146C214.138 10.9146 210.661 12.267 208.06 14.972C205.459 17.6769 204.145 21.2475 204.145 25.7106C204.145 30.0115 205.431 33.4739 208.032 36.0706C210.634 38.6674 214.056 39.9657 218.355 39.9657C222.078 39.9657 225.118 38.9649 227.472 36.9632C229.827 34.9616 231.251 32.2025 231.716 28.632H224.324C223.721 32.3648 221.75 34.2042 218.382 34.2042Z" fill="#042051"/>
      <path d="M84.3847 25.3318C83.7823 24.7908 82.9062 24.2768 81.7836 23.844C80.661 23.4112 79.7301 23.0866 78.9361 22.8702C78.1694 22.6809 77.129 22.4645 75.8148 22.194C75.6231 22.167 75.3493 22.1129 74.9386 22.0317C72.6934 21.5719 71.1602 21.1391 70.284 20.7604C69.4079 20.3546 68.9972 19.6784 68.9972 18.6776C68.9972 17.812 69.3805 17.1628 70.1197 16.6759C70.8864 16.189 71.9268 15.9456 73.2958 15.9456C74.9112 15.9456 76.1433 16.2431 76.9921 16.8112C77.8409 17.3792 78.3611 18.353 78.5801 19.7596H85.7263C85.6168 16.73 84.4394 14.5119 82.2217 13.0783C79.9765 11.6447 77.129 10.9414 73.6244 10.9414C69.7364 10.9414 66.7246 11.6717 64.589 13.1324C62.4533 14.5931 61.4129 16.6759 61.4129 19.3809C61.4129 20.0841 61.4677 20.7604 61.6046 21.3555C61.7415 21.9506 61.9605 22.4916 62.3164 22.9784C62.645 23.4653 62.9736 23.8711 63.2747 24.2227C63.5759 24.5744 64.014 24.899 64.589 25.2236C65.1913 25.5211 65.6568 25.7645 66.0127 25.9809C66.3687 26.1703 66.9437 26.3867 67.7103 26.6031C68.4769 26.8195 69.0519 26.9818 69.3805 27.0629C69.709 27.1441 70.3388 27.2793 71.1875 27.4687C72.0637 27.658 72.6113 27.7662 72.8577 27.8474C72.9672 27.8744 73.1041 27.9285 73.2958 27.9556C75.541 28.4424 77.0742 28.9293 77.8956 29.3351C78.717 29.7679 79.1277 30.4982 79.1277 31.5261C79.1277 32.554 78.6623 33.3925 77.7587 34.0147C76.8278 34.6368 75.5957 34.9614 74.0624 34.9614C70.3388 34.9614 68.3674 33.4196 68.121 30.363H60.8105C60.8379 33.663 62.0974 36.1245 64.5342 37.7204C66.9984 39.3164 70.0923 40.1278 73.8982 40.1278C77.8683 40.1278 80.9896 39.2893 83.2621 37.6122C85.5346 35.9352 86.6572 33.663 86.6572 30.7687C86.6572 29.5515 86.4108 28.4965 85.9453 27.5769C85.5346 26.6031 84.987 25.8727 84.3847 25.3318Z" fill="#042051"/>
      <path d="M201.106 11.7261H193.439V39.2895H201.106V11.7261Z" fill="#042051"/>
      <path d="M197.574 0.716797C195.274 0.716797 193.412 2.55616 193.412 4.82832C193.412 7.10048 195.274 8.93985 197.574 8.93985C199.874 8.93985 201.736 7.10048 201.736 4.82832C201.736 2.52911 199.874 0.716797 197.574 0.716797Z" fill="#042051"/>
      </g>
      <defs>
      <clipPath id="clip0_469_2303">
      <rect width="260" height="48.1482" fill="white" transform="translate(0 0.852051)"/>
      </clipPath>
      </defs>
    </g>

    <g id="search" width="44" height="44" viewBox="0 0 44 44" fill="none" xmlns="http://www.w3.org/2000/svg">
      <path fill-rule="evenodd" clip-rule="evenodd" d="M9.16699 20.4333C9.16618 15.0595 12.9615 10.4335 18.2319 9.38436C23.5024 8.33524 28.7799 11.1552 30.837 16.1197C32.8941 21.0842 31.1578 26.8105 26.69 29.7966C22.2222 32.7826 16.2673 32.1968 12.467 28.3973C10.3543 26.2854 9.16724 23.4206 9.16699 20.4333Z" stroke="#042051" stroke-width="2" stroke-linecap="round" stroke-linejoin="round"/>
      <path d="M28.3965 28.3989L34.8333 34.8358" stroke="#042051" stroke-width="2" stroke-linecap="round" stroke-linejoin="round"/>
    </g>

    <g id="donat-arrow-red" width="24" height="24" viewBox="0 0 24 24" fill="none" xmlns="http://www.w3.org/2000/svg">
      <path fill-rule="evenodd" clip-rule="evenodd" d="M8.71994 8.65804L15.7939 7.62904C15.9511 7.6151 16.1063 7.67151 16.2179 7.78307C16.3295 7.89463 16.3859 8.04988 16.3719 8.20704L15.3429 15.282C15.3287 15.4919 15.2044 15.6785 15.0163 15.7725C14.8281 15.8664 14.6042 15.8537 14.4279 15.739C14.3838 15.7039 14.3462 15.6613 14.3169 15.613L11.9599 12.041L8.38994 9.68404C8.34169 9.6548 8.29903 9.61721 8.26394 9.57304C8.14931 9.39688 8.13649 9.17322 8.23023 8.98512C8.32398 8.79702 8.51028 8.67258 8.71994 8.65804Z" stroke="#F70531" stroke-width="1.5" stroke-linecap="round" stroke-linejoin="round"/>
      <path d="M14.8013 6.35881C14.5102 6.65357 14.0354 6.65659 13.7406 6.36557C13.4459 6.07455 13.4428 5.59968 13.7339 5.30493L14.8013 6.35881ZM14.3456 5.75287L13.8119 5.22593C13.8166 5.22109 13.8215 5.21632 13.8264 5.21162L14.3456 5.75287ZM18.1696 5.83187L17.6497 6.37249C17.6425 6.36555 17.6354 6.35846 17.6285 6.35122L18.1696 5.83187ZM18.2476 9.65487L18.789 10.1738C18.7853 10.1777 18.7816 10.1815 18.7779 10.1852L18.2476 9.65487ZM18.6999 10.2632C18.407 10.5561 17.9321 10.5561 17.6392 10.2632C17.3463 9.97031 17.3463 9.49544 17.6392 9.20254L18.6999 10.2632ZM11.4292 11.5105C11.7221 11.2176 12.197 11.2176 12.4899 11.5105C12.7828 11.8034 12.7828 12.2783 12.4899 12.5712L11.4292 11.5105ZM5.53089 19.5302C5.238 19.8231 4.76312 19.8231 4.47023 19.5302C4.17734 19.2373 4.17734 18.7624 4.47023 18.4695L5.53089 19.5302ZM13.7339 5.30493L13.8119 5.22593L14.8793 6.27981L14.8013 6.35881L13.7339 5.30493ZM13.8264 5.21162C15.2031 3.89105 17.3896 3.93622 18.7106 5.31252L17.6285 6.35122C16.881 5.57245 15.6438 5.54689 14.8647 6.29413L13.8264 5.21162ZM18.6894 5.29125C20.0637 6.61269 20.1083 8.79744 18.789 10.1738L17.7061 9.1359C18.4528 8.3569 18.4275 7.12039 17.6497 6.37249L18.6894 5.29125ZM18.7779 10.1852L18.6999 10.2632L17.6392 9.20254L17.7172 9.12454L18.7779 10.1852ZM12.4899 12.5712L5.53089 19.5302L4.47023 18.4695L11.4292 11.5105L12.4899 12.5712Z" fill="#F70531"/>
    </g>

    <g id="donat-arrow-white" width="24" height="24" viewBox="0 0 24 24" fill="none" xmlns="http://www.w3.org/2000/svg">
      <path fill-rule="evenodd" clip-rule="evenodd" d="M8.71994 8.65804L15.7939 7.62904C15.9511 7.6151 16.1063 7.67151 16.2179 7.78307C16.3295 7.89463 16.3859 8.04988 16.3719 8.20704L15.3429 15.282C15.3287 15.4919 15.2044 15.6785 15.0163 15.7725C14.8281 15.8664 14.6042 15.8537 14.4279 15.739C14.3838 15.7039 14.3462 15.6613 14.3169 15.613L11.9599 12.041L8.38994 9.68404C8.34169 9.6548 8.29903 9.61721 8.26394 9.57304C8.14931 9.39688 8.13649 9.17322 8.23023 8.98512C8.32398 8.79702 8.51028 8.67258 8.71994 8.65804Z" stroke="#fff" stroke-width="1.5" stroke-linecap="round" stroke-linejoin="round"/>
      <path d="M14.8013 6.35881C14.5102 6.65357 14.0354 6.65659 13.7406 6.36557C13.4459 6.07455 13.4428 5.59968 13.7339 5.30493L14.8013 6.35881ZM14.3456 5.75287L13.8119 5.22593C13.8166 5.22109 13.8215 5.21632 13.8264 5.21162L14.3456 5.75287ZM18.1696 5.83187L17.6497 6.37249C17.6425 6.36555 17.6354 6.35846 17.6285 6.35122L18.1696 5.83187ZM18.2476 9.65487L18.789 10.1738C18.7853 10.1777 18.7816 10.1815 18.7779 10.1852L18.2476 9.65487ZM18.6999 10.2632C18.407 10.5561 17.9321 10.5561 17.6392 10.2632C17.3463 9.97031 17.3463 9.49544 17.6392 9.20254L18.6999 10.2632ZM11.4292 11.5105C11.7221 11.2176 12.197 11.2176 12.4899 11.5105C12.7828 11.8034 12.7828 12.2783 12.4899 12.5712L11.4292 11.5105ZM5.53089 19.5302C5.238 19.8231 4.76312 19.8231 4.47023 19.5302C4.17734 19.2373 4.17734 18.7624 4.47023 18.4695L5.53089 19.5302ZM13.7339 5.30493L13.8119 5.22593L14.8793 6.27981L14.8013 6.35881L13.7339 5.30493ZM13.8264 5.21162C15.2031 3.89105 17.3896 3.93622 18.7106 5.31252L17.6285 6.35122C16.881 5.57245 15.6438 5.54689 14.8647 6.29413L13.8264 5.21162ZM18.6894 5.29125C20.0637 6.61269 20.1083 8.79744 18.789 10.1738L17.7061 9.1359C18.4528 8.3569 18.4275 7.12039 17.6497 6.37249L18.6894 5.29125ZM18.7779 10.1852L18.6999 10.2632L17.6392 9.20254L17.7172 9.12454L18.7779 10.1852ZM12.4899 12.5712L5.53089 19.5302L4.47023 18.4695L11.4292 11.5105L12.4899 12.5712Z" fill="#fff"/>
    </g>

    <g id="arrow-right-with-line" width="42" height="42" viewBox="0 0 42 42" xmlns="http://www.w3.org/2000/svg">
      <path d="M23.5453 29.2069C23.2453 29.4926 23.2337 29.9673 23.5194 30.2672C23.8051 30.5672 24.2798 30.5788 24.5797 30.2931L23.5453 29.2069ZM33.7672 21.5431C34.0672 21.2574 34.0788 20.7827 33.7931 20.4828C33.5074 20.1828 33.0327 20.1712 32.7328 20.4569L33.7672 21.5431ZM32.7328 21.5431C33.0327 21.8288 33.5074 21.8172 33.7931 21.5172C34.0788 21.2173 34.0672 20.7426 33.7672 20.4569L32.7328 21.5431ZM24.5797 11.7069C24.2798 11.4212 23.8051 11.4328 23.5194 11.7328C23.2337 12.0327 23.2453 12.5074 23.5453 12.7931L24.5797 11.7069ZM33.25 21.75C33.6642 21.75 34 21.4142 34 21C34 20.5858 33.6642 20.25 33.25 20.25V21.75ZM8.75 20.25C8.33579 20.25 8 20.5858 8 21C8 21.4142 8.33579 21.75 8.75 21.75V20.25ZM24.5797 30.2931L33.7672 21.5431L32.7328 20.4569L23.5453 29.2069L24.5797 30.2931ZM33.7672 20.4569L24.5797 11.7069L23.5453 12.7931L32.7328 21.5431L33.7672 20.4569ZM33.25 20.25L8.75 20.25V21.75L33.25 21.75V20.25Z"/>
    </g>

    <g id="arrow-with-line-right-top" width="32" height="32" viewBox="0 0 32 32" xmlns="http://www.w3.org/2000/svg">
      <path d="M21.1131 19.034C21.0963 19.7242 21.6421 20.2973 22.3323 20.3141C23.0224 20.331 23.5955 19.7851 23.6124 19.095L21.1131 19.034ZM23.8481 9.43118C23.8649 8.74103 23.3191 8.16791 22.6289 8.15107C21.9388 8.13424 21.3657 8.68007 21.3488 9.37022L23.8481 9.43118ZM22.6289 10.6503C23.3191 10.6335 23.8649 10.0604 23.8481 9.37022C23.8313 8.68007 23.2581 8.13424 22.568 8.15107L22.6289 10.6503ZM12.9042 8.38678C12.214 8.40361 11.6682 8.97673 11.685 9.66688C11.7019 10.357 12.275 10.9029 12.9651 10.886L12.9042 8.38678ZM23.4823 10.2846C23.9705 9.79643 23.9705 9.00497 23.4823 8.51682C22.9942 8.02866 22.2027 8.02866 21.7146 8.51682L23.4823 10.2846ZM8.51525 21.7161C8.02709 22.2043 8.02709 22.9958 8.51525 23.4839C9.0034 23.9721 9.79486 23.9721 10.283 23.4839L8.51525 21.7161ZM23.6124 19.095L23.8481 9.43118L21.3488 9.37022L21.1131 19.034L23.6124 19.095ZM22.568 8.15107L12.9042 8.38678L12.9651 10.886L22.6289 10.6503L22.568 8.15107ZM21.7146 8.51682L8.51525 21.7161L10.283 23.4839L23.4823 10.2846L21.7146 8.51682Z"/>
    </g>

    <g id="double-arrow-right" width="24" height="24" viewBox="0 0 24 24" xmlns="http://www.w3.org/2000/svg">
      <path d="M10.2772 18.4623C9.9802 18.751 9.97351 19.2258 10.2623 19.5228C10.551 19.8198 11.0258 19.8265 11.3228 19.5377L10.2772 18.4623ZM18 12L18.5228 12.5377C18.6681 12.3965 18.75 12.2026 18.75 12C18.75 11.7974 18.6681 11.6035 18.5228 11.4623L18 12ZM11.3228 4.46225C11.0258 4.17351 10.551 4.1802 10.2623 4.47719C9.97351 4.77418 9.9802 5.24901 10.2772 5.53775L11.3228 4.46225ZM5.47721 17.2952C5.18021 17.584 5.17351 18.0588 5.46224 18.3558C5.75097 18.6528 6.2258 18.6595 6.52279 18.3708L5.47721 17.2952ZM12 12L12.5228 12.5378C12.668 12.3965 12.75 12.2026 12.75 12C12.75 11.7974 12.668 11.6035 12.5228 11.4622L12 12ZM6.52279 5.62924C6.2258 5.34051 5.75097 5.34721 5.46224 5.64421C5.17351 5.9412 5.18021 6.41603 5.47721 6.70476L6.52279 5.62924ZM11.3228 19.5377L18.5228 12.5377L17.4772 11.4623L10.2772 18.4623L11.3228 19.5377ZM18.5228 11.4623L11.3228 4.46225L10.2772 5.53775L17.4772 12.5377L18.5228 11.4623ZM6.52279 18.3708L12.5228 12.5378L11.4772 11.4622L5.47721 17.2952L6.52279 18.3708ZM12.5228 11.4622L6.52279 5.62924L5.47721 6.70476L11.4772 12.5378L12.5228 11.4622Z"/>
    </g>

    <g id="calendar-check" width="28" height="24" viewBox="0 0 28 24" fill="none" xmlns="http://www.w3.org/2000/svg">
      <path fill-rule="evenodd" clip-rule="evenodd" d="M5.6836 12V15C5.6836 17.7614 8.2283 20 11.3674 20H15.9144C17.4218 20 18.8675 19.4732 19.9334 18.5355C20.9993 17.5979 21.5981 16.3261 21.5981 15V12C21.5996 10.6735 21.0013 9.40097 19.9351 8.463C18.8688 7.52503 17.4223 6.99867 15.9144 7H11.3674C9.85947 6.99867 8.4129 7.52503 7.34666 8.463C6.28042 9.40097 5.68209 10.6735 5.6836 12V12Z" stroke="#818FA7" stroke-width="1.5" stroke-linecap="round" stroke-linejoin="round"/>
      <path d="M9.48047 9C9.48047 9.41421 9.81626 9.75 10.2305 9.75C10.6447 9.75 10.9805 9.41421 10.9805 9H9.48047ZM10.9805 5C10.9805 4.58579 10.6447 4.25 10.2305 4.25C9.81626 4.25 9.48047 4.58579 9.48047 5H10.9805ZM16.301 9C16.301 9.41421 16.6368 9.75 17.051 9.75C17.4652 9.75 17.801 9.41421 17.801 9H16.301ZM17.801 5C17.801 4.58579 17.4652 4.25 17.051 4.25C16.6368 4.25 16.301 4.58579 16.301 5H17.801ZM10.7258 13.4369C10.4148 13.1633 9.94094 13.1936 9.66735 13.5046C9.39376 13.8156 9.42409 14.2895 9.73509 14.5631L10.7258 13.4369ZM12.504 16L12.0086 16.5631C12.2918 16.8123 12.7161 16.8123 12.9993 16.5631L12.504 16ZM17.5464 12.5631C17.8574 12.2895 17.8877 11.8156 17.6141 11.5046C17.3405 11.1936 16.8666 11.1633 16.5556 11.4369L17.5464 12.5631ZM10.9805 9V5H9.48047V9H10.9805ZM17.801 9V5H16.301V9H17.801ZM9.73509 14.5631L12.0086 16.5631L12.9993 15.4369L10.7258 13.4369L9.73509 14.5631ZM12.9993 16.5631L17.5464 12.5631L16.5556 11.4369L12.0086 15.4369L12.9993 16.5631Z" fill="#818FA7"/>
    </g>

    <g id="comment-alt-lines" width="24" height="24" viewBox="0 0 24 24" fill="none" xmlns="http://www.w3.org/2000/svg">
      <path d="M8.5001 8.517C8.08589 8.517 7.7501 8.85279 7.7501 9.267C7.7501 9.68121 8.08589 10.017 8.5001 10.017V8.517ZM15.5001 10.017C15.9143 10.017 16.2501 9.68121 16.2501 9.267C16.2501 8.85279 15.9143 8.517 15.5001 8.517V10.017ZM9.3751 11.076C8.96089 11.076 8.6251 11.4118 8.6251 11.826C8.6251 12.2402 8.96089 12.576 9.3751 12.576V11.076ZM14.6251 12.576C15.0393 12.576 15.3751 12.2402 15.3751 11.826C15.3751 11.4118 15.0393 11.076 14.6251 11.076V12.576ZM8.6631 5L8.6631 4.24998L8.65763 4.25002L8.6631 5ZM15.3381 5L15.3438 4.25H15.3381V5ZM19.0001 8.717L18.2501 8.71149V8.717H19.0001ZM19.0001 13.23L18.2501 13.23L18.2501 13.2355L19.0001 13.23ZM17.9384 15.8472L17.4042 15.3207L17.4042 15.3207L17.9384 15.8472ZM15.3371 16.947L15.3371 17.697L15.3426 17.697L15.3371 16.947ZM8.6631 16.947V16.197C8.53469 16.197 8.40843 16.23 8.29641 16.2928L8.6631 16.947ZM5.0001 19H4.2501C4.2501 19.2662 4.39125 19.5125 4.62097 19.6471C4.85068 19.7817 5.13454 19.7844 5.36679 19.6542L5.0001 19ZM5.0001 8.717L5.75012 8.717L5.75008 8.71149L5.0001 8.717ZM6.06175 6.09984L5.52756 5.5734L5.52756 5.5734L6.06175 6.09984ZM8.5001 10.017H15.5001V8.517H8.5001V10.017ZM9.3751 12.576H14.6251V11.076H9.3751V12.576ZM8.6631 5.75H15.3381V4.25H8.6631V5.75ZM15.3324 5.74998C16.9559 5.76225 18.262 7.08806 18.2501 8.71149L19.7501 8.72251C19.7681 6.2708 17.7955 4.26856 15.3438 4.25002L15.3324 5.74998ZM18.2501 8.717V13.23H19.7501V8.717H18.2501ZM18.2501 13.2355C18.2558 14.0153 17.9516 14.7653 17.4042 15.3207L18.4726 16.3736C19.2992 15.5348 19.7587 14.4021 19.7501 13.2245L18.2501 13.2355ZM17.4042 15.3207C16.8569 15.8761 16.1114 16.1913 15.3316 16.197L15.3426 17.697C16.5201 17.6884 17.6461 17.2124 18.4726 16.3736L17.4042 15.3207ZM15.3371 16.197H8.6631V17.697H15.3371V16.197ZM8.29641 16.2928L4.63341 18.3458L5.36679 19.6542L9.02979 17.6012L8.29641 16.2928ZM5.7501 19V8.717H4.2501V19H5.7501ZM5.75008 8.71149C5.74435 7.93175 6.04862 7.18167 6.59595 6.62627L5.52756 5.5734C4.70098 6.41216 4.24147 7.54494 4.25012 8.72251L5.75008 8.71149ZM6.59595 6.62627C7.14328 6.07088 7.88882 5.75566 8.66857 5.74998L8.65763 4.25002C7.48006 4.2586 6.35413 4.73464 5.52756 5.5734L6.59595 6.62627Z" fill="#818FA7"/>
    </g>

    <g id="heart-outline" width="20" height="20" viewBox="0 0 20 20" fill="none" xmlns="http://www.w3.org/2000/svg">
      <path fill-rule="evenodd" clip-rule="evenodd" d="M9.4099 17.2547C9.56573 17.4122 9.77823 17.4997 9.99906 17.4997C10.2207 17.4997 10.4324 17.4122 10.5891 17.2555L17.0624 10.7713C18.7591 9.07134 18.7591 6.30551 17.0616 4.60551C16.2424 3.78551 15.1482 3.33301 13.9832 3.33301C12.8166 3.33301 11.7232 3.78551 10.9032 4.60634L9.99906 5.51134L9.0949 4.60551C8.27573 3.78551 7.18156 3.33301 6.01573 3.33301C4.8499 3.33301 3.75656 3.78551 2.93656 4.60551C1.2399 6.30551 1.2399 9.07134 2.93656 10.7713L9.4099 17.2547ZM4.11573 5.78384C4.62073 5.27801 5.29573 4.99967 6.01573 4.99967C6.73656 4.99967 7.41073 5.27801 7.91573 5.78301L9.40906 7.27967C9.7224 7.59384 10.2757 7.59384 10.5891 7.27967L12.0824 5.78384C13.0924 4.77301 14.8724 4.77134 15.8824 5.78384C16.9316 6.83384 16.9316 8.54301 15.8824 9.59467L9.99906 15.4872L4.11656 9.59467C3.0674 8.54301 3.0674 6.83384 4.11573 5.78384Z" fill="#818FA7"/>
      <mask id="mask0_468_5758" style="mask-type:luminance" maskUnits="userSpaceOnUse" x="1" y="3" width="18" height="15">
      <path fill-rule="evenodd" clip-rule="evenodd" d="M9.4099 17.2547C9.56573 17.4122 9.77823 17.4997 9.99906 17.4997C10.2207 17.4997 10.4324 17.4122 10.5891 17.2555L17.0624 10.7713C18.7591 9.07134 18.7591 6.30551 17.0616 4.60551C16.2424 3.78551 15.1482 3.33301 13.9832 3.33301C12.8166 3.33301 11.7232 3.78551 10.9032 4.60634L9.99906 5.51134L9.0949 4.60551C8.27573 3.78551 7.18156 3.33301 6.01573 3.33301C4.8499 3.33301 3.75656 3.78551 2.93656 4.60551C1.2399 6.30551 1.2399 9.07134 2.93656 10.7713L9.4099 17.2547ZM4.11573 5.78384C4.62073 5.27801 5.29573 4.99967 6.01573 4.99967C6.73656 4.99967 7.41073 5.27801 7.91573 5.78301L9.40906 7.27967C9.7224 7.59384 10.2757 7.59384 10.5891 7.27967L12.0824 5.78384C13.0924 4.77301 14.8724 4.77134 15.8824 5.78384C16.9316 6.83384 16.9316 8.54301 15.8824 9.59467L9.99906 15.4872L4.11656 9.59467C3.0674 8.54301 3.0674 6.83384 4.11573 5.78384Z" fill="white"/>
      </mask>
      <g mask="url(#mask0_468_5758)">
      </g>
    </g>

    <g id="share" width="20" height="20" viewBox="0 0 20 20" fill="none" xmlns="http://www.w3.org/2000/svg">
      <path fill-rule="evenodd" clip-rule="evenodd" d="M13.2502 13.2175C13.7018 12.775 14.3185 12.5 14.9993 12.5C16.3777 12.5 17.4993 13.6217 17.4993 15C17.4993 16.3783 16.3777 17.5 14.9993 17.5C13.621 17.5 12.4993 16.3783 12.4993 15C12.4993 14.931 12.5086 14.8638 12.5178 14.7968C12.5212 14.7715 12.5247 14.7462 12.5277 14.7208L5.91518 11.7825C5.46352 12.225 4.84685 12.5 4.16602 12.5C2.78768 12.5 1.66602 11.3783 1.66602 10C1.66602 8.62167 2.78768 7.5 4.16602 7.5C4.84685 7.5 5.46352 7.775 5.91518 8.2175L12.5277 5.27917C12.5247 5.25381 12.5212 5.22852 12.5178 5.20321C12.5086 5.13617 12.4993 5.06896 12.4993 5C12.4993 3.62167 13.621 2.5 14.9993 2.5C16.3777 2.5 17.4993 3.62167 17.4993 5C17.4993 6.37833 16.3777 7.5 14.9993 7.5C14.3185 7.5 13.7018 7.225 13.2502 6.7825L6.63768 9.72083C6.64065 9.74619 6.64412 9.77148 6.6476 9.7968C6.65679 9.86384 6.66602 9.93104 6.66602 10C6.66602 10.069 6.65679 10.1362 6.6476 10.2032C6.64412 10.2285 6.64065 10.2538 6.63768 10.2792L13.2502 13.2175ZM14.9993 4.16667C15.4593 4.16667 15.8327 4.54 15.8327 5C15.8327 5.46 15.4593 5.83333 14.9993 5.83333C14.5393 5.83333 14.166 5.46 14.166 5C14.166 4.54 14.5393 4.16667 14.9993 4.16667ZM3.33268 10C3.33268 10.46 3.70602 10.8333 4.16602 10.8333C4.62602 10.8333 4.99935 10.46 4.99935 10C4.99935 9.54 4.62602 9.16667 4.16602 9.16667C3.70602 9.16667 3.33268 9.54 3.33268 10ZM14.166 15C14.166 15.46 14.5393 15.8333 14.9993 15.8333C15.4593 15.8333 15.8327 15.46 15.8327 15C15.8327 14.54 15.4593 14.1667 14.9993 14.1667C14.5393 14.1667 14.166 14.54 14.166 15Z" fill="#818FA7"/>
      <mask id="mask0_468_5759" style="mask-type:luminance" maskUnits="userSpaceOnUse" x="1" y="2" width="17" height="16">
      <path fill-rule="evenodd" clip-rule="evenodd" d="M13.2502 13.2175C13.7018 12.775 14.3185 12.5 14.9993 12.5C16.3777 12.5 17.4993 13.6217 17.4993 15C17.4993 16.3783 16.3777 17.5 14.9993 17.5C13.621 17.5 12.4993 16.3783 12.4993 15C12.4993 14.931 12.5086 14.8638 12.5178 14.7968C12.5212 14.7715 12.5247 14.7462 12.5277 14.7208L5.91518 11.7825C5.46352 12.225 4.84685 12.5 4.16602 12.5C2.78768 12.5 1.66602 11.3783 1.66602 10C1.66602 8.62167 2.78768 7.5 4.16602 7.5C4.84685 7.5 5.46352 7.775 5.91518 8.2175L12.5277 5.27917C12.5247 5.25381 12.5212 5.22852 12.5178 5.20321C12.5086 5.13617 12.4993 5.06896 12.4993 5C12.4993 3.62167 13.621 2.5 14.9993 2.5C16.3777 2.5 17.4993 3.62167 17.4993 5C17.4993 6.37833 16.3777 7.5 14.9993 7.5C14.3185 7.5 13.7018 7.225 13.2502 6.7825L6.63768 9.72083C6.64065 9.74619 6.64412 9.77148 6.6476 9.7968C6.65679 9.86384 6.66602 9.93104 6.66602 10C6.66602 10.069 6.65679 10.1362 6.6476 10.2032C6.64412 10.2285 6.64065 10.2538 6.63768 10.2792L13.2502 13.2175ZM14.9993 4.16667C15.4593 4.16667 15.8327 4.54 15.8327 5C15.8327 5.46 15.4593 5.83333 14.9993 5.83333C14.5393 5.83333 14.166 5.46 14.166 5C14.166 4.54 14.5393 4.16667 14.9993 4.16667ZM3.33268 10C3.33268 10.46 3.70602 10.8333 4.16602 10.8333C4.62602 10.8333 4.99935 10.46 4.99935 10C4.99935 9.54 4.62602 9.16667 4.16602 9.16667C3.70602 9.16667 3.33268 9.54 3.33268 10ZM14.166 15C14.166 15.46 14.5393 15.8333 14.9993 15.8333C15.4593 15.8333 15.8327 15.46 15.8327 15C15.8327 14.54 15.4593 14.1667 14.9993 14.1667C14.5393 14.1667 14.166 14.54 14.166 15Z" fill="white"/>
      </mask>
      <g mask="url(#mask0_468_5759)">
      </g>
    </g>

    <g id="logo-light" width="329" height="62" viewBox="0 0 329 62" fill="none" xmlns="http://www.w3.org/2000/svg">
      <g clip-path="url(#clip0_469_2315)">
      <path d="M40.5716 14.6873C40.5716 10.0951 39.0472 6.66817 35.9983 4.40637C32.9494 2.14457 28.9998 1.01367 24.1493 1.01367H-0.0683594V49.1968H10.5334V31.685H19.576L29.8659 49.2996H41.8189L30.3856 29.6631C36.3101 27.1272 40.5716 22.1581 40.5716 14.6873ZM10.5334 9.3412H21.1351C23.8721 9.3412 26.0548 9.78671 27.6832 10.6777C29.3116 11.5687 30.1085 13.2822 30.1085 15.8182C30.1085 22.6036 26.921 24.0086 20.6847 24.0086H10.5334V9.3412Z" fill="#4A78EC"/>
      <path d="M58.3097 13.2822C53.1474 13.2822 48.9206 15.03 45.5945 18.5598C42.2685 22.0895 40.6055 26.5446 40.6055 31.9592C40.6055 37.4766 42.2685 41.8974 45.5599 45.2216C48.8513 48.5457 53.2167 50.2249 58.6561 50.2249C62.7097 50.2249 66.209 49.1968 69.1539 47.1064C72.0988 45.0159 74.1083 42.1373 75.217 38.3676H65.8972C64.546 41.7603 62.1207 43.4395 58.7254 43.4395C56.127 43.4395 54.1175 42.6513 52.6623 41.0749C51.2418 39.4985 50.4796 37.2025 50.445 34.1867H75.7713V33.2272C75.7713 27.0929 74.2123 22.2266 71.0595 18.6283C67.872 15.0642 63.6452 13.2822 58.3097 13.2822ZM50.445 28.0867C50.7222 25.6536 51.5537 23.7345 52.9742 22.3294C54.3946 20.9244 56.1616 20.239 58.3097 20.239C60.5963 20.239 62.3633 20.9586 63.6452 22.4322C64.9271 23.9058 65.6893 25.7907 65.8972 28.0867H50.445Z" fill="#4A78EC"/>
      <path d="M210.891 13.4878C206.179 13.4878 202.472 15.167 199.735 18.5597V1.01367H190.104V49.1968H199.354L199.285 44.8103C201.779 48.3743 205.486 50.1564 210.372 50.1564C215.014 50.1564 218.791 48.4429 221.701 44.9817C224.611 41.5204 226.032 36.9968 226.032 31.4109C226.032 26.2361 224.68 21.9524 221.978 18.5597C219.276 15.167 215.603 13.4878 210.891 13.4878ZM213.94 39.4642C212.416 41.4519 210.406 42.4457 207.877 42.4457C205.244 42.4457 203.165 41.4861 201.641 39.5328C200.151 37.5794 199.389 34.9406 199.389 31.5479C199.389 28.2581 200.151 25.6536 201.675 23.7345C203.2 21.8154 205.279 20.8558 207.877 20.8558C210.372 20.8558 212.416 21.8154 213.94 23.7687C215.465 25.7221 216.227 28.2923 216.227 31.4794C216.227 34.8036 215.465 37.4766 213.94 39.4642Z" fill="white"/>
      <path d="M175.621 32.2679C175.621 38.8477 173.057 42.1376 167.964 42.1376C166.647 42.1376 165.573 41.932 164.707 41.555C163.875 41.1781 163.252 40.5612 162.905 39.773C162.524 38.9505 162.316 38.1623 162.178 37.3741C162.074 36.5859 162.005 35.5236 162.005 34.2213V14.2764H152.234V37.7511C152.234 41.8634 153.308 44.9477 155.491 47.0382C157.674 49.1286 160.688 50.191 164.568 50.191C169.488 50.191 173.334 48.2033 176.071 44.2281V49.1629H185.321V14.2764H175.69L175.621 32.2679Z" fill="white"/>
      <path d="M133.006 13.3516C128.26 13.3516 124.622 15.0993 122.058 18.6291V14.2768H112.877V61.569H122.509V44.8454C125.003 48.3066 128.641 50.0544 133.387 50.0544C137.995 50.0544 141.703 48.4094 144.509 45.0853C147.315 41.7611 148.701 37.3746 148.701 31.9257C148.701 26.2712 147.281 21.7819 144.405 18.3892C141.564 15.0308 137.753 13.3516 133.006 13.3516ZM136.817 39.7392C135.328 41.624 133.284 42.5836 130.685 42.5836C128.052 42.5836 125.973 41.624 124.449 39.7392C122.959 37.8544 122.197 35.2156 122.197 31.8229C122.197 28.4302 122.924 25.7915 124.414 23.9066C125.904 22.0218 127.948 21.0622 130.616 21.0622C133.214 21.0622 135.258 22.0218 136.783 23.9752C138.273 25.9285 139.035 28.5673 139.035 31.96C139.035 35.2499 138.307 37.8201 136.817 39.7392Z" fill="white"/>
      <path d="M239.371 1.01367H229.67V49.1968H239.371V1.01367Z" fill="white"/>
      <path d="M327.891 39.7384V24.6598C327.891 17.0862 322.763 13.2822 312.508 13.2822C302.149 13.2822 296.709 17.2232 296.155 25.071H305.267C305.579 23.0833 306.271 21.7126 307.311 20.9244C308.35 20.1362 310.013 19.7249 312.231 19.7249C316.457 19.7249 318.605 21.2671 318.605 24.3856C318.605 25.7221 318.017 26.6474 316.873 27.1614C315.73 27.6755 313.409 28.121 310.013 28.5665C308.454 28.7378 307.242 28.9092 306.375 29.0805C305.509 29.2519 304.366 29.4575 302.945 29.8002C301.525 30.1086 300.416 30.5199 299.619 31.0339C298.823 31.5137 297.991 32.1648 297.09 32.9187C296.189 33.6727 295.566 34.6322 295.185 35.7631C294.804 36.894 294.596 38.1963 294.596 39.6699C294.596 42.9598 295.704 45.53 297.956 47.4148C300.208 49.2996 303.257 50.2249 307.207 50.2249C311.85 50.2249 315.661 48.7513 318.64 45.8384C318.779 47.1749 319.021 48.3058 319.333 49.2311H329.138C328.306 47.312 327.891 44.1592 327.891 39.7384ZM318.536 36.1401C318.536 38.5732 317.739 40.4923 316.18 41.8631C314.621 43.2339 312.508 43.9193 309.909 43.9193C308.212 43.9193 306.895 43.5081 305.96 42.6513C305.024 41.8289 304.574 40.6637 304.574 39.2244C304.574 37.7508 305.059 36.5513 306.064 35.6946C306.93 35.0092 308.801 34.4609 311.676 34.0154C315.106 33.4671 317.393 32.8502 318.502 32.1991L318.536 36.1401Z" fill="white"/>
      <path d="M276.338 42.7542C273.74 42.7542 271.73 41.7947 270.275 39.8756C268.855 37.9565 268.127 35.2492 268.127 31.7879C268.127 28.2239 268.855 25.448 270.344 23.4261C271.834 21.4042 273.878 20.4104 276.546 20.4104C280.461 20.4104 282.782 22.4323 283.51 26.4419H293.003C292.587 22.398 290.89 19.1767 287.945 16.8121C284.965 14.4475 281.154 13.248 276.442 13.248C270.968 13.248 266.568 14.9615 263.277 18.3885C259.985 21.8155 258.322 26.3391 258.322 31.9936C258.322 37.4424 259.951 41.8289 263.242 45.1188C266.533 48.4087 270.864 50.0537 276.304 50.0537C281.016 50.0537 284.861 48.7857 287.841 46.2497C290.82 43.7138 292.622 40.2183 293.211 35.6947H283.856C283.094 40.4239 280.6 42.7542 276.338 42.7542Z" fill="white"/>
      <path d="M106.78 31.5137C106.017 30.8283 104.909 30.1772 103.488 29.6289C102.068 29.0805 100.89 28.6693 99.885 28.3952C98.9149 28.1553 97.5983 27.8811 95.9353 27.5384C95.6928 27.5041 95.3463 27.4356 94.8266 27.3328C91.9857 26.7502 90.0455 26.2019 88.9368 25.7221C87.8281 25.2081 87.3084 24.3513 87.3084 23.0834C87.3084 21.9867 87.7935 21.1643 88.7289 20.5474C89.699 19.9305 91.0156 19.6221 92.7479 19.6221C94.792 19.6221 96.3511 19.9991 97.4251 20.7187C98.4991 21.4384 99.1574 22.6721 99.4346 24.4541H108.477C108.339 20.6159 106.849 17.8058 104.043 15.9895C101.202 14.1732 97.5983 13.2822 93.1636 13.2822C88.2439 13.2822 84.4328 14.2075 81.7304 16.0581C79.028 17.9086 77.7114 20.5474 77.7114 23.9744C77.7114 24.8654 77.7807 25.7221 77.954 26.476C78.1272 27.23 78.4044 27.9154 78.8548 28.5322C79.2705 29.1491 79.6863 29.6631 80.0674 30.1086C80.4485 30.5541 81.0028 30.9654 81.7304 31.3766C82.4926 31.7536 83.0816 32.062 83.532 32.3362C83.9824 32.576 84.71 32.8502 85.6801 33.1244C86.6501 33.3985 87.3777 33.6041 87.7935 33.7069C88.2092 33.8098 89.0061 33.9811 90.0801 34.221C91.1888 34.4609 91.8817 34.598 92.1935 34.7008C92.3321 34.735 92.5054 34.8036 92.7479 34.8378C95.5889 35.4547 97.529 36.0716 98.5684 36.5856C99.6078 37.1339 100.128 38.0592 100.128 39.3614C100.128 40.6637 99.5385 41.7261 98.3952 42.5143C97.2172 43.3025 95.6581 43.7137 93.718 43.7137C89.0061 43.7137 86.5116 41.7603 86.1997 37.8878H76.9492C76.9839 42.0687 78.5776 45.1873 81.6611 47.2092C84.7792 49.2311 88.6943 50.2592 93.5101 50.2592C98.5338 50.2592 102.483 49.1968 105.359 47.0721C108.235 44.9474 109.655 42.0687 109.655 38.4019C109.655 36.8598 109.343 35.5232 108.754 34.3581C108.235 33.1244 107.542 32.1991 106.78 31.5137Z" fill="white"/>
      <path d="M254.476 14.2764H244.775V49.1972H254.476V14.2764Z" fill="white"/>
      <path d="M250.006 0.329102C247.096 0.329102 244.74 2.65944 244.74 5.53809C244.74 8.41674 247.096 10.7471 250.006 10.7471C252.917 10.7471 255.273 8.41674 255.273 5.53809C255.273 2.62517 252.917 0.329102 250.006 0.329102Z" fill="white"/>
      </g>
      <defs>
      <clipPath id="clip0_469_2315">
      <rect width="329" height="61" fill="white" transform="translate(0 0.5)"/>
      </clipPath>
      </defs>
    </g>

    <g id="call-dark" width="24" height="24" viewBox="0 0 24 24" fill="none" xmlns="http://www.w3.org/2000/svg">
      <path fill-rule="evenodd" clip-rule="evenodd" d="M2.62853 3.35073C3.91457 1.996 4.36907 1.61603 4.9171 1.4392C5.29637 1.33982 5.69413 1.3343 6.076 1.42312C6.57873 1.56926 6.71172 1.68033 8.3602 3.32296C9.80846 4.76538 9.95314 4.92175 10.092 5.2038C10.3574 5.69889 10.3989 6.28376 10.206 6.81136C10.0598 7.21325 9.8523 7.47922 8.97399 8.36046L8.40111 8.93479C8.25067 9.08768 8.21531 9.31985 8.31343 9.51059C9.58623 11.682 11.392 13.4928 13.5599 14.7717C13.8094 14.9053 14.1167 14.8621 14.3198 14.665L14.8708 14.1228C15.2113 13.7738 15.5719 13.4449 15.9508 13.1378C16.5458 12.7725 17.2872 12.7399 17.912 13.0516C18.2174 13.1977 18.3183 13.2883 19.8118 14.779C21.3522 16.3149 21.396 16.3632 21.5655 16.7154C21.8845 17.2984 21.8812 18.0045 21.5568 18.5845C21.3916 18.9119 21.2908 19.0302 20.4242 19.9159C19.901 20.4507 19.4085 20.9389 19.3296 21.0105C18.6147 21.6024 17.6974 21.8928 16.7721 21.8201C15.0791 21.6658 13.4405 21.1425 11.9713 20.2871C8.71697 18.5629 5.94652 16.0507 3.91311 12.98C3.47022 12.3374 3.07647 11.6622 2.73521 10.9603C1.81976 9.39129 1.34701 7.60335 1.36733 5.78691C1.43722 4.83664 1.89293 3.95636 2.62853 3.35073Z" stroke="#042051" stroke-width="2" stroke-linecap="round" stroke-linejoin="round"/>
    </g>

    <g id="close" width="37" height="37" viewBox="0 0 37 37" fill="none" xmlns="http://www.w3.org/2000/svg">
      <path d="M2.37592 33.5637C2.08303 33.8566 2.08303 34.3315 2.37592 34.6244C2.66881 34.9173 3.14369 34.9173 3.43658 34.6244L2.37592 33.5637ZM18.9765 19.0845C19.2694 18.7916 19.2694 18.3168 18.9765 18.0239C18.6836 17.731 18.2087 17.731 17.9158 18.0239L18.9765 19.0845ZM17.9155 18.0242C17.6226 18.3171 17.6226 18.792 17.9155 19.0849C18.2084 19.3778 18.6832 19.3778 18.9761 19.0849L17.9155 18.0242ZM34.516 3.54498C34.8089 3.25209 34.8089 2.77721 34.516 2.48432C34.2231 2.19143 33.7482 2.19143 33.4553 2.48432L34.516 3.54498ZM18.9761 18.0239C18.6832 17.731 18.2084 17.731 17.9155 18.0239C17.6226 18.3168 17.6226 18.7916 17.9155 19.0845L18.9761 18.0239ZM33.4553 34.6244C33.7482 34.9173 34.2231 34.9173 34.516 34.6244C34.8089 34.3315 34.8089 33.8566 34.516 33.5637L33.4553 34.6244ZM17.9158 19.0849C18.2087 19.3778 18.6836 19.3778 18.9765 19.0849C19.2694 18.792 19.2694 18.3171 18.9765 18.0242L17.9158 19.0849ZM3.43658 2.48432C3.14369 2.19143 2.66881 2.19143 2.37592 2.48432C2.08303 2.77721 2.08303 3.25209 2.37592 3.54498L3.43658 2.48432ZM3.43658 34.6244L18.9765 19.0845L17.9158 18.0239L2.37592 33.5637L3.43658 34.6244ZM18.9761 19.0849L34.516 3.54498L33.4553 2.48432L17.9155 18.0242L18.9761 19.0849ZM17.9155 19.0845L33.4553 34.6244L34.516 33.5637L18.9761 18.0239L17.9155 19.0845ZM18.9765 18.0242L3.43658 2.48432L2.37592 3.54498L17.9158 19.0849L18.9765 18.0242Z" fill="black"/>
    </g>













  </defs>
</svg>