<svg width="400" height="250" viewBox="0 0 400 250" fill="none" xmlns="http://www.w3.org/2000/svg">
<g clip-path="url(#clip0_2656_5840)">
<mask id="mask0_2656_5840" style="mask-type:luminance" maskUnits="userSpaceOnUse" x="0" y="0" width="400" height="250">
<path d="M380 0H20C8.9543 0 0 8.9543 0 20V230C0 241.046 8.9543 250 20 250H380C391.046 250 400 241.046 400 230V20C400 8.9543 391.046 0 380 0Z" fill="white"/>
</mask>
<g mask="url(#mask0_2656_5840)">
<path d="M380 0H20C8.9543 0 0 8.9543 0 20V230C0 241.046 8.9543 250 20 250H380C391.046 250 400 241.046 400 230V20C400 8.9543 391.046 0 380 0Z" fill="url(#paint0_linear_2656_5840)"/>
<path d="M291.304 169.228H310.611C315.589 169.228 319.557 170.054 322.502 171.702C325.451 173.353 326.925 176.491 326.925 181.112C326.925 193.512 321.103 196.095 309.737 196.095H291.304V169.228ZM345.98 179.009C345.98 170.59 343.199 164.318 337.637 160.19C332.075 156.063 324.891 154 316.09 154H272V242.148H291.304V210.084H307.788L326.52 242.342H348.265L327.414 206.435C338.219 201.781 345.98 192.665 345.98 179.009Z" fill="#FEFEFE"/>
<path d="M363.918 203.518C364.418 199.062 365.953 195.553 368.527 192.996C371.1 190.435 374.338 189.158 378.242 189.158C382.393 189.158 385.631 190.499 387.955 193.181C390.279 195.862 391.652 199.309 392.066 203.518H363.918ZM378.242 176.406C368.859 176.406 361.138 179.624 355.075 186.06C349.015 192.502 345.982 200.672 345.982 210.575C345.982 220.644 348.994 228.733 355.013 234.842C361.033 240.949 368.983 244.001 378.864 244.001C386.254 244.001 392.626 242.105 397.981 238.306C403.336 234.509 407.012 229.187 409.004 222.336H392.066C389.575 228.527 385.215 231.622 378.99 231.622C374.255 231.622 370.582 230.179 367.966 227.288C365.352 224.399 364.003 220.19 363.918 214.66H410.001V212.928C410.001 201.702 407.136 192.809 401.409 186.247C395.677 179.685 387.955 176.406 378.242 176.406Z" fill="#FEFEFE"/>
<mask id="mask1_2656_5840" style="mask-type:luminance" maskUnits="userSpaceOnUse" x="32" y="32" width="169" height="31">
<path d="M201 32H32V63H201V32Z" fill="white"/>
</mask>
<g mask="url(#mask1_2656_5840)">
<path d="M52.8407 39.2106C52.8407 36.8769 52.0576 35.1353 50.4915 33.9859C48.9254 32.8364 46.8965 32.2617 44.4049 32.2617H31.9648V56.7482H37.4107V47.8488H42.0557L47.3414 56.8005H53.4814L47.6084 46.8213C50.6517 45.5325 52.8407 43.0072 52.8407 39.2106ZM37.4107 36.4937H42.8566C44.2625 36.4937 45.3838 36.7201 46.2202 37.173C47.0567 37.6258 47.466 38.4966 47.466 39.7853C47.466 43.2336 45.8287 43.9477 42.6252 43.9477H37.4107V36.4937Z" fill="#4A78EC"/>
<path d="M61.9537 38.4961C59.3019 38.4961 57.1307 39.3843 55.4222 41.1781C53.7137 42.9719 52.8594 45.236 52.8594 47.9877C52.8594 50.7916 53.7137 53.0382 55.4044 54.7276C57.0951 56.4169 59.3375 57.2703 62.1316 57.2703C64.2139 57.2703 66.0114 56.7478 67.5241 55.6854C69.0368 54.6231 70.0691 53.1601 70.6386 51.2444H65.8512C65.1571 52.9686 63.9113 53.8219 62.1672 53.8219C60.8324 53.8219 59.8002 53.4214 59.0527 52.6203C58.3231 51.8191 57.9315 50.6523 57.9137 49.1197H70.9233V48.632C70.9233 45.5146 70.1225 43.0416 68.5029 41.2129C66.8656 39.4017 64.6944 38.4961 61.9537 38.4961ZM57.9137 46.0197C58.0561 44.7832 58.4832 43.8079 59.2129 43.0938C59.9426 42.3798 60.8502 42.0315 61.9537 42.0315C63.1282 42.0315 64.0359 42.3972 64.6944 43.1461C65.3529 43.895 65.7444 44.8528 65.8512 46.0197H57.9137Z" fill="#4A78EC"/>
<path d="M140.331 38.601C137.91 38.601 136.006 39.4544 134.6 41.1786V32.2617H129.652V56.7482H134.404L134.369 54.519C135.65 56.3303 137.554 57.2359 140.064 57.2359C142.448 57.2359 144.388 56.3651 145.883 54.6061C147.378 52.8471 148.108 50.5482 148.108 47.7095C148.108 45.0797 147.414 42.9027 146.026 41.1786C144.637 39.4544 142.751 38.601 140.331 38.601ZM141.897 51.8022C141.114 52.8123 140.081 53.3173 138.782 53.3173C137.43 53.3173 136.362 52.8297 135.579 51.837C134.813 50.8443 134.422 49.5033 134.422 47.7791C134.422 46.1072 134.813 44.7836 135.597 43.8083C136.38 42.8331 137.447 42.3454 138.782 42.3454C140.064 42.3454 141.114 42.8331 141.897 43.8258C142.68 44.8185 143.071 46.1246 143.071 47.7443C143.071 49.4336 142.68 50.7921 141.897 51.8022Z" fill="white"/>
<path d="M122.212 48.1433C122.212 51.4871 120.895 53.159 118.279 53.159C117.603 53.159 117.051 53.0545 116.606 52.8629C116.179 52.6713 115.859 52.3579 115.681 51.9573C115.485 51.5393 115.378 51.1388 115.307 50.7382C115.254 50.3376 115.218 49.7978 115.218 49.136V39H110.199V50.9298C110.199 53.0197 110.751 54.5871 111.872 55.6494C112.993 56.7118 114.542 57.2517 116.535 57.2517C119.062 57.2517 121.038 56.2416 122.444 54.2213V56.7292H127.195V39H122.248L122.212 48.1433Z" fill="white"/>
<path d="M100.322 38.5312C97.8843 38.5312 96.0156 39.4195 94.6986 41.2133V39.0015H89.9824V63.0352H94.93V54.5364C96.2114 56.2954 98.08 57.1835 100.518 57.1835C102.885 57.1835 104.79 56.3475 106.231 54.6582C107.673 52.9689 108.384 50.7397 108.384 47.9706C108.384 45.097 107.655 42.8155 106.178 41.0914C104.718 39.3846 102.761 38.5312 100.322 38.5312ZM102.28 51.9414C101.515 52.8992 100.465 53.387 99.1301 53.387C97.7775 53.387 96.7097 52.8992 95.9266 51.9414C95.1613 50.9835 94.7698 49.6426 94.7698 47.9184C94.7698 46.1943 95.1435 44.8533 95.9088 43.8954C96.6741 42.9375 97.7241 42.4498 99.0945 42.4498C100.429 42.4498 101.479 42.9374 102.262 43.9301C103.028 44.9228 103.419 46.2638 103.419 47.988C103.419 49.6599 103.045 50.9661 102.28 51.9414Z" fill="white"/>
<path d="M154.96 32.2617H149.977V56.7482H154.96V32.2617Z" fill="white"/>
<path d="M200.429 51.941V44.2781C200.429 40.4292 197.795 38.4961 192.527 38.4961C187.206 38.4961 184.412 40.4989 184.127 44.4871H188.808C188.968 43.477 189.324 42.7804 189.858 42.3798C190.392 41.9792 191.246 41.7703 192.385 41.7703C194.556 41.7703 195.659 42.554 195.659 44.1388C195.659 44.818 195.357 45.2882 194.77 45.5495C194.182 45.8107 192.99 46.0371 191.246 46.2635C190.445 46.3506 189.822 46.4377 189.377 46.5247C188.932 46.6118 188.345 46.7163 187.615 46.8905C186.886 47.0472 186.316 47.2562 185.907 47.5174C185.497 47.7613 185.07 48.0922 184.608 48.4753C184.145 48.8585 183.824 49.3461 183.629 49.9208C183.433 50.4955 183.326 51.1573 183.326 51.9062C183.326 53.5781 183.896 54.8843 185.052 55.8422C186.209 56.8 187.775 57.2703 189.804 57.2703C192.189 57.2703 194.147 56.5214 195.677 55.041C195.748 55.7203 195.873 56.295 196.033 56.7652H201.07C200.643 55.7899 200.429 54.1877 200.429 51.941ZM195.624 50.1124C195.624 51.3489 195.215 52.3242 194.414 53.0208C193.613 53.7174 192.527 54.0658 191.192 54.0658C190.32 54.0658 189.644 53.8568 189.164 53.4214C188.683 53.0034 188.452 52.4113 188.452 51.6798C188.452 50.9309 188.701 50.3214 189.217 49.886C189.662 49.5377 190.623 49.259 192.1 49.0326C193.862 48.754 195.037 48.4405 195.606 48.1096L195.624 50.1124Z" fill="white"/>
<path d="M173.948 53.4754C172.613 53.4754 171.581 52.9878 170.833 52.0125C170.104 51.0372 169.73 49.6614 169.73 47.9024C169.73 46.0911 170.104 44.6805 170.869 43.6529C171.634 42.6254 172.684 42.1204 174.055 42.1204C176.066 42.1204 177.258 43.1479 177.632 45.1855H182.508C182.295 43.1305 181.422 41.4934 179.91 40.2917C178.379 39.09 176.422 38.4805 174.001 38.4805C171.189 38.4805 168.929 39.3513 167.238 41.0928C165.548 42.8344 164.693 45.1333 164.693 48.0069C164.693 50.776 165.53 53.0052 167.221 54.6771C168.911 56.349 171.136 57.185 173.93 57.185C176.35 57.185 178.326 56.5406 179.856 55.2518C181.387 53.9631 182.312 52.1866 182.615 49.8878H177.81C177.418 52.2911 176.137 53.4754 173.948 53.4754Z" fill="white"/>
<path d="M86.8505 47.7613C86.459 47.4129 85.8895 47.082 85.1598 46.8034C84.4301 46.5247 83.825 46.3158 83.3089 46.1764C82.8106 46.0545 82.1343 45.9152 81.2801 45.741C81.1555 45.7236 80.9775 45.6888 80.7106 45.6365C79.2512 45.3405 78.2546 45.0618 77.6851 44.818C77.1156 44.5568 76.8486 44.1214 76.8486 43.477C76.8486 42.9197 77.0978 42.5017 77.5783 42.1882C78.0766 41.8747 78.7529 41.718 79.6428 41.718C80.6928 41.718 81.4936 41.9096 82.0454 42.2753C82.5971 42.641 82.9352 43.268 83.0776 44.1736H87.7226C87.6514 42.2231 86.8861 40.795 85.4446 39.8719C83.9852 38.9489 82.1343 38.4961 79.8563 38.4961C77.3292 38.4961 75.3715 38.9663 73.9833 39.9068C72.5952 40.8472 71.9189 42.1882 71.9189 43.9298C71.9189 44.3826 71.9545 44.818 72.0435 45.2012C72.1324 45.5843 72.2748 45.9326 72.5062 46.2461C72.7197 46.5596 72.9333 46.8208 73.1291 47.0472C73.3248 47.2736 73.6096 47.4826 73.9833 47.6916C74.3749 47.8832 74.6774 48.0399 74.9088 48.1792C75.1401 48.3012 75.5139 48.4405 76.0122 48.5798C76.5105 48.7191 76.8842 48.8236 77.0978 48.8759C77.3114 48.9281 77.7207 49.0152 78.2724 49.1371C78.8419 49.259 79.1978 49.3287 79.358 49.3809C79.4292 49.3983 79.5182 49.4332 79.6428 49.4506C81.1021 49.7641 82.0987 50.0776 82.6327 50.3388C83.1666 50.6174 83.4335 51.0877 83.4335 51.7495C83.4335 52.4113 83.131 52.9512 82.5437 53.3517C81.9386 53.7523 81.1377 53.9613 80.1411 53.9613C77.7207 53.9613 76.4393 52.9686 76.2791 51.0006H71.5273C71.5451 53.1253 72.3638 54.7101 73.9477 55.7377C75.5495 56.7652 77.5605 57.2877 80.0343 57.2877C82.6149 57.2877 84.6437 56.7478 86.1209 55.668C87.598 54.5882 88.3277 53.1253 88.3277 51.2618C88.3277 50.4781 88.1675 49.7989 87.865 49.2068C87.598 48.5798 87.2421 48.1096 86.8505 47.7613Z" fill="white"/>
<path d="M162.718 39H157.734V56.7466H162.718V39Z" fill="white"/>
<path d="M160.424 31.9141C158.929 31.9141 157.719 33.0983 157.719 34.5613C157.719 36.0242 158.929 37.2084 160.424 37.2084C161.919 37.2084 163.129 36.0242 163.129 34.5613C163.129 33.0809 161.919 31.9141 160.424 31.9141Z" fill="white"/>
</g>
</g>
</g>
<defs>
<linearGradient id="paint0_linear_2656_5840" x1="146.703" y1="250" x2="310.228" y2="-40.1216" gradientUnits="userSpaceOnUse">
<stop stop-color="#041F3D"/>
<stop offset="0.375" stop-color="#1A304C"/>
<stop offset="0.791667" stop-color="#3E4C66"/>
</linearGradient>
<clipPath id="clip0_2656_5840">
<rect width="400" height="250" fill="white"/>
</clipPath>
</defs>
</svg>
