<svg width="37" height="37" viewBox="0 0 37 37" fill="none" xmlns="http://www.w3.org/2000/svg">
<path d="M2.37592 33.5637C2.08303 33.8566 2.08303 34.3315 2.37592 34.6244C2.66881 34.9173 3.14369 34.9173 3.43658 34.6244L2.37592 33.5637ZM18.9765 19.0845C19.2694 18.7916 19.2694 18.3168 18.9765 18.0239C18.6836 17.731 18.2087 17.731 17.9158 18.0239L18.9765 19.0845ZM17.9155 18.0242C17.6226 18.3171 17.6226 18.792 17.9155 19.0849C18.2084 19.3778 18.6832 19.3778 18.9761 19.0849L17.9155 18.0242ZM34.516 3.54498C34.8089 3.25209 34.8089 2.77721 34.516 2.48432C34.2231 2.19143 33.7482 2.19143 33.4553 2.48432L34.516 3.54498ZM18.9761 18.0239C18.6832 17.731 18.2084 17.731 17.9155 18.0239C17.6226 18.3168 17.6226 18.7916 17.9155 19.0845L18.9761 18.0239ZM33.4553 34.6244C33.7482 34.9173 34.2231 34.9173 34.516 34.6244C34.8089 34.3315 34.8089 33.8566 34.516 33.5637L33.4553 34.6244ZM17.9158 19.0849C18.2087 19.3778 18.6836 19.3778 18.9765 19.0849C19.2694 18.792 19.2694 18.3171 18.9765 18.0242L17.9158 19.0849ZM3.43658 2.48432C3.14369 2.19143 2.66881 2.19143 2.37592 2.48432C2.08303 2.77721 2.08303 3.25209 2.37592 3.54498L3.43658 2.48432ZM3.43658 34.6244L18.9765 19.0845L17.9158 18.0239L2.37592 33.5637L3.43658 34.6244ZM18.9761 19.0849L34.516 3.54498L33.4553 2.48432L17.9155 18.0242L18.9761 19.0849ZM17.9155 19.0845L33.4553 34.6244L34.516 33.5637L18.9761 18.0239L17.9155 19.0845ZM18.9765 18.0242L3.43658 2.48432L2.37592 3.54498L17.9158 19.0849L18.9765 18.0242Z" fill="black"/>
</svg>
