
<svg width="400" height="250" viewBox="0 0 400 250" fill="none" xmlns="http://www.w3.org/2000/svg">
<g clip-path="url(#clip0_1367_4068)">
<rect width="400" height="250" rx="20" fill="url(#paint0_linear_1367_4068)"/>
<path d="M299.403 135.612C304.507 135.612 309.127 136.228 313.263 137.46C317.399 138.692 320.919 140.496 323.823 142.872C326.815 145.248 329.103 148.196 330.687 151.716C332.271 155.236 333.063 159.284 333.063 163.86C333.063 169.932 331.699 175.124 328.971 179.436C326.243 183.66 322.591 186.916 318.015 189.204L343.095 225.24V228.012H321.183L296.895 192.768H290.559V228.012H270.231V135.612H299.403ZM299.139 175.608C303.363 175.608 306.575 174.552 308.775 172.44C310.975 170.24 312.075 167.468 312.075 164.124C312.075 160.868 311.019 158.184 308.907 156.072C306.883 153.872 303.759 152.772 299.535 152.772H290.559V175.608H299.139ZM377.996 228.936C372.98 228.936 368.404 228.188 364.268 226.692C360.132 225.196 356.568 223.084 353.576 220.356C350.672 217.628 348.384 214.372 346.712 210.588C345.128 206.804 344.336 202.624 344.336 198.048C344.336 193.208 345.172 188.808 346.844 184.848C348.516 180.888 350.804 177.544 353.708 174.816C356.7 172 360.176 169.844 364.136 168.348C368.096 166.764 372.408 165.972 377.072 165.972C381.912 165.972 386.224 166.808 390.008 168.48C393.88 170.064 397.136 172.308 399.776 175.212C402.416 178.116 404.44 181.548 405.848 185.508C407.256 189.468 407.96 193.78 407.96 198.444V201.876H362.552C363.432 206.012 365.324 209.18 368.228 211.38C371.22 213.492 375.004 214.548 379.58 214.548C383.012 214.548 386.224 213.976 389.216 212.832C392.208 211.6 394.716 209.84 396.74 207.552L406.904 216.792C403.648 220.664 399.556 223.656 394.628 225.768C389.7 227.88 384.156 228.936 377.996 228.936ZM376.544 180.624C372.936 180.624 369.944 181.592 367.568 183.528C365.192 185.376 363.564 188.016 362.684 191.448H390.272C389.832 188.456 388.424 185.904 386.048 183.792C383.76 181.68 380.592 180.624 376.544 180.624Z" fill="white"/>
<g clip-path="url(#clip1_1367_4068)">
<path d="M52.8407 39.2106C52.8407 36.8769 52.0576 35.1353 50.4915 33.9859C48.9254 32.8364 46.8965 32.2617 44.4049 32.2617H31.9648V56.7482H37.4107V47.8488H42.0557L47.3414 56.8005H53.4814L47.6084 46.8213C50.6517 45.5325 52.8407 43.0072 52.8407 39.2106ZM37.4107 36.4937H42.8566C44.2625 36.4937 45.3838 36.7201 46.2202 37.173C47.0567 37.6258 47.466 38.4966 47.466 39.7853C47.466 43.2336 45.8287 43.9477 42.6252 43.9477H37.4107V36.4937Z" fill="#4A78EC"/>
<path d="M61.9527 38.4961C59.3009 38.4961 57.1297 39.3843 55.4212 41.1781C53.7127 42.9719 52.8584 45.236 52.8584 47.9877C52.8584 50.7916 53.7127 53.0382 55.4034 54.7276C57.0941 56.4169 59.3365 57.2703 62.1306 57.2703C64.2129 57.2703 66.0104 56.7478 67.5231 55.6854C69.0358 54.6231 70.0681 53.1601 70.6376 51.2444H65.8502C65.1561 52.9686 63.9103 53.8219 62.1662 53.8219C60.8314 53.8219 59.7992 53.4214 59.0517 52.6203C58.3221 51.8191 57.9305 50.6523 57.9127 49.1197H70.9223V48.632C70.9223 45.5146 70.1215 43.0416 68.5019 41.2129C66.8646 39.4017 64.6934 38.4961 61.9527 38.4961ZM57.9127 46.0197C58.0551 44.7832 58.4822 43.8079 59.2119 43.0938C59.9416 42.3798 60.8492 42.0315 61.9527 42.0315C63.1272 42.0315 64.0349 42.3972 64.6934 43.1461C65.3519 43.895 65.7434 44.8528 65.8502 46.0197H57.9127Z" fill="#4A78EC"/>
<path d="M140.331 38.601C137.91 38.601 136.006 39.4544 134.6 41.1786V32.2617H129.652V56.7482H134.404L134.369 54.519C135.65 56.3303 137.554 57.2359 140.064 57.2359C142.448 57.2359 144.388 56.3651 145.883 54.6061C147.378 52.8471 148.108 50.5482 148.108 47.7095C148.108 45.0797 147.414 42.9027 146.026 41.1786C144.637 39.4544 142.751 38.601 140.331 38.601ZM141.897 51.8022C141.114 52.8123 140.081 53.3173 138.782 53.3173C137.43 53.3173 136.362 52.8297 135.579 51.837C134.813 50.8443 134.422 49.5033 134.422 47.7791C134.422 46.1072 134.813 44.7836 135.597 43.8083C136.38 42.8331 137.447 42.3454 138.782 42.3454C140.064 42.3454 141.114 42.8331 141.897 43.8258C142.68 44.8185 143.071 46.1246 143.071 47.7443C143.071 49.4336 142.68 50.7921 141.897 51.8022Z" fill="white"/>
<path d="M122.213 48.1433C122.213 51.4871 120.896 53.159 118.28 53.159C117.604 53.159 117.052 53.0545 116.607 52.8629C116.18 52.6713 115.86 52.3579 115.682 51.9573C115.486 51.5393 115.379 51.1388 115.308 50.7382C115.255 50.3376 115.219 49.7978 115.219 49.136V39H110.2V50.9298C110.2 53.0197 110.752 54.5871 111.873 55.6494C112.994 56.7118 114.543 57.2517 116.536 57.2517C119.063 57.2517 121.039 56.2416 122.445 54.2213V56.7292H127.196V39H122.249L122.213 48.1433Z" fill="white"/>
<path d="M100.322 38.5312C97.8843 38.5312 96.0156 39.4195 94.6986 41.2133V39.0015H89.9824V63.0352H94.93V54.5363C96.2114 56.2953 98.08 57.1835 100.518 57.1835C102.885 57.1835 104.79 56.3475 106.231 54.6582C107.673 52.9689 108.384 50.7397 108.384 47.9706C108.384 45.097 107.655 42.8155 106.178 41.0914C104.718 39.3846 102.761 38.5312 100.322 38.5312ZM102.28 51.9414C101.515 52.8992 100.465 53.3869 99.1301 53.3869C97.7775 53.3869 96.7097 52.8992 95.9266 51.9414C95.1613 50.9835 94.7698 49.6425 94.7698 47.9183C94.7698 46.1942 95.1435 44.8532 95.9088 43.8953C96.6741 42.9374 97.7241 42.4498 99.0945 42.4498C100.429 42.4498 101.479 42.9374 102.262 43.9301C103.028 44.9228 103.419 46.2638 103.419 47.988C103.419 49.6599 103.045 50.9661 102.28 51.9414Z" fill="white"/>
<path d="M154.96 32.2617H149.977V56.7482H154.96V32.2617Z" fill="white"/>
<path d="M200.43 51.941V44.2781C200.43 40.4292 197.796 38.4961 192.528 38.4961C187.207 38.4961 184.413 40.4989 184.128 44.4871H188.809C188.969 43.477 189.325 42.7804 189.859 42.3798C190.393 41.9792 191.247 41.7703 192.386 41.7703C194.557 41.7703 195.66 42.554 195.66 44.1388C195.66 44.818 195.358 45.2882 194.771 45.5495C194.183 45.8107 192.991 46.0371 191.247 46.2635C190.446 46.3506 189.823 46.4377 189.378 46.5247C188.933 46.6118 188.346 46.7163 187.616 46.8905C186.887 47.0472 186.317 47.2562 185.908 47.5174C185.498 47.7613 185.071 48.0922 184.609 48.4753C184.146 48.8585 183.825 49.3461 183.63 49.9208C183.434 50.4955 183.327 51.1573 183.327 51.9062C183.327 53.5781 183.897 54.8843 185.053 55.8422C186.21 56.8 187.776 57.2703 189.805 57.2703C192.19 57.2703 194.148 56.5214 195.678 55.041C195.749 55.7203 195.874 56.295 196.034 56.7652H201.071C200.644 55.7899 200.43 54.1877 200.43 51.941ZM195.625 50.1124C195.625 51.3489 195.216 52.3242 194.415 53.0208C193.614 53.7174 192.528 54.0658 191.193 54.0658C190.321 54.0658 189.645 53.8568 189.165 53.4214C188.684 53.0034 188.453 52.4113 188.453 51.6798C188.453 50.9309 188.702 50.3214 189.218 49.886C189.663 49.5377 190.624 49.259 192.101 49.0326C193.863 48.754 195.038 48.4405 195.607 48.1096L195.625 50.1124Z" fill="white"/>
<path d="M173.949 53.4754C172.614 53.4754 171.582 52.9878 170.834 52.0125C170.105 51.0372 169.731 49.6614 169.731 47.9024C169.731 46.0911 170.105 44.6805 170.87 43.6529C171.635 42.6254 172.685 42.1204 174.056 42.1204C176.067 42.1204 177.259 43.1479 177.633 45.1855H182.509C182.296 43.1305 181.423 41.4934 179.911 40.2917C178.38 39.09 176.423 38.4805 174.002 38.4805C171.19 38.4805 168.93 39.3513 167.239 41.0928C165.549 42.8344 164.694 45.1333 164.694 48.0069C164.694 50.776 165.531 53.0052 167.222 54.6771C168.912 56.349 171.137 57.185 173.931 57.185C176.351 57.185 178.327 56.5406 179.857 55.2518C181.388 53.9631 182.313 52.1866 182.616 49.8878H177.811C177.419 52.2911 176.138 53.4754 173.949 53.4754Z" fill="white"/>
<path d="M86.8505 47.7613C86.459 47.4129 85.8895 47.082 85.1598 46.8034C84.4301 46.5247 83.825 46.3158 83.3089 46.1764C82.8106 46.0545 82.1343 45.9152 81.2801 45.741C81.1555 45.7236 80.9775 45.6888 80.7106 45.6365C79.2512 45.3405 78.2546 45.0618 77.6851 44.818C77.1156 44.5568 76.8486 44.1214 76.8486 43.477C76.8486 42.9197 77.0978 42.5017 77.5783 42.1882C78.0766 41.8747 78.7529 41.718 79.6428 41.718C80.6928 41.718 81.4936 41.9096 82.0454 42.2753C82.5971 42.641 82.9352 43.268 83.0776 44.1736H87.7226C87.6514 42.2231 86.8861 40.795 85.4446 39.8719C83.9852 38.9489 82.1343 38.4961 79.8563 38.4961C77.3292 38.4961 75.3715 38.9663 73.9833 39.9068C72.5952 40.8472 71.9189 42.1882 71.9189 43.9298C71.9189 44.3826 71.9545 44.818 72.0435 45.2012C72.1324 45.5843 72.2748 45.9326 72.5062 46.2461C72.7197 46.5596 72.9333 46.8208 73.1291 47.0472C73.3248 47.2736 73.6096 47.4826 73.9833 47.6916C74.3749 47.8832 74.6774 48.0399 74.9088 48.1792C75.1401 48.3012 75.5139 48.4405 76.0122 48.5798C76.5105 48.7191 76.8842 48.8236 77.0978 48.8759C77.3114 48.9281 77.7207 49.0152 78.2724 49.1371C78.8419 49.259 79.1978 49.3287 79.358 49.3809C79.4292 49.3983 79.5182 49.4332 79.6428 49.4506C81.1021 49.7641 82.0987 50.0776 82.6327 50.3388C83.1666 50.6174 83.4335 51.0877 83.4335 51.7495C83.4335 52.4113 83.131 52.9512 82.5437 53.3517C81.9386 53.7523 81.1377 53.9613 80.1411 53.9613C77.7207 53.9613 76.4393 52.9686 76.2791 51.0006H71.5273C71.5451 53.1253 72.3638 54.7101 73.9477 55.7377C75.5495 56.7652 77.5605 57.2877 80.0343 57.2877C82.6149 57.2877 84.6437 56.7478 86.1209 55.668C87.598 54.5882 88.3277 53.1253 88.3277 51.2618C88.3277 50.4781 88.1675 49.7989 87.865 49.2068C87.598 48.5798 87.2421 48.1096 86.8505 47.7613Z" fill="white"/>
<path d="M162.719 39H157.735V56.7466H162.719V39Z" fill="white"/>
<path d="M160.423 31.9141C158.928 31.9141 157.718 33.0983 157.718 34.5613C157.718 36.0242 158.928 37.2084 160.423 37.2084C161.918 37.2084 163.128 36.0242 163.128 34.5613C163.128 33.0809 161.918 31.9141 160.423 31.9141Z" fill="white"/>
</g>
</g>
<defs>
<linearGradient id="paint0_linear_1367_4068" x1="146.703" y1="250" x2="310.228" y2="-40.1216" gradientUnits="userSpaceOnUse">
<stop stop-color="#041F3D"/>
<stop offset="0.375" stop-color="#1A304C"/>
<stop offset="0.791667" stop-color="#3E4C66"/>
</linearGradient>
<clipPath id="clip0_1367_4068">
<rect width="400" height="250" rx="20" fill="white"/>
</clipPath>
<clipPath id="clip1_1367_4068">
<rect width="169" height="31" fill="white" transform="translate(32 32)"/>
</clipPath>
</defs>
</svg>
