<?xml version="1.0" standalone="no"?>
<!DOCTYPE svg PUBLIC "-//W3C//DTD SVG 20010904//EN"
 "http://www.w3.org/TR/2001/REC-SVG-20010904/DTD/svg10.dtd">
<svg version="1.0" xmlns="http://www.w3.org/2000/svg"
 width="700.000000pt" height="700.000000pt" viewBox="0 0 700.000000 700.000000"
 preserveAspectRatio="xMidYMid meet">
<metadata>
Created by potrace 1.14, written by Peter Selinger 2001-2017
</metadata>
<g transform="translate(0.000000,700.000000) scale(0.100000,-0.100000)"
fill="#000000" stroke="none">
<path d="M3278 6996 c-1 -2 -42 -6 -89 -10 -47 -4 -95 -8 -105 -10 -10 -2 -45
-7 -78 -11 -101 -12 -214 -35 -381 -76 -369 -93 -764 -271 -1090 -493 -103
-70 -87 -58 -230 -171 -415 -331 -787 -810 -990 -1275 -25 -58 -50 -114 -55
-125 -45 -93 -150 -427 -176 -560 -2 -11 -10 -54 -19 -95 -29 -147 -35 -193
-52 -370 -15 -162 -8 -592 12 -711 2 -13 6 -46 9 -74 47 -408 239 -953 466
-1318 30 -48 60 -95 65 -105 25 -44 135 -194 212 -289 203 -251 422 -457 690
-652 62 -44 115 -81 117 -81 3 0 32 -18 65 -40 33 -22 63 -40 67 -40 4 0 15
-6 23 -14 9 -7 81 -47 161 -88 354 -181 736 -303 1109 -354 25 -3 57 -8 71
-10 163 -25 682 -25 842 1 13 2 46 7 73 10 71 10 87 13 115 18 14 3 43 8 65
12 325 59 741 212 1039 384 49 28 91 51 93 51 10 0 268 180 353 247 151 118
324 281 450 422 36 41 70 79 76 85 29 30 185 242 240 326 120 184 241 412 315
597 66 163 147 422 175 558 16 75 54 300 60 350 4 33 9 76 11 95 8 69 10 517
2 595 -15 162 -21 220 -24 225 -2 3 -6 30 -10 60 -3 30 -10 71 -15 90 -5 19
-12 51 -15 70 -13 75 -67 275 -106 392 -348 1038 -1164 1854 -2204 2206 -167
56 -419 119 -555 137 -19 3 -46 7 -60 10 -13 2 -54 7 -90 11 -36 3 -76 8 -90
11 -27 5 -536 14 -542 9z m487 -560 c59 -6 134 -15 180 -21 48 -6 175 -32 230
-46 22 -6 47 -12 55 -14 65 -13 278 -80 318 -101 15 -8 32 -14 38 -14 12 0
175 -74 255 -115 159 -82 303 -172 429 -268 537 -412 911 -965 1075 -1592 75
-286 99 -474 99 -765 0 -146 -8 -295 -19 -362 -2 -13 -6 -45 -10 -71 -54 -434
-271 -956 -548 -1322 -379 -501 -855 -845 -1447 -1045 -131 -44 -366 -100
-485 -115 -27 -4 -61 -8 -75 -11 -166 -24 -607 -23 -735 2 -11 2 -40 7 -65 10
-45 6 -62 9 -110 19 -14 2 -36 6 -50 9 -62 10 -245 61 -355 98 -512 173 -1031
538 -1345 947 -14 17 -35 44 -48 59 -66 78 -216 320 -290 467 -113 226 -228
567 -257 759 -3 21 -7 41 -9 45 -2 3 -7 35 -11 71 -4 36 -9 68 -10 71 -9 13
-19 227 -19 374 1 150 9 321 19 355 2 8 7 44 10 80 4 36 9 68 11 71 2 4 6 24
10 45 16 108 108 428 149 519 7 17 25 59 40 95 255 610 781 1167 1385 1465
198 98 457 194 590 220 8 2 33 8 55 13 61 16 186 41 241 48 27 3 60 7 74 9 14
2 63 7 110 11 47 3 86 7 88 9 4 4 383 -4 427 -9z"/>
<path d="M1400 3536 l0 -1401 308 0 307 0 0 508 c0 331 3 507 10 508 39 4 509
3 515 -1 7 -4 81 -127 161 -266 13 -23 118 -202 232 -398 l209 -356 349 0 349
0 -29 48 c-25 41 -356 609 -401 687 -10 17 -66 113 -125 213 -59 101 -103 188
-99 192 5 5 41 25 79 46 101 53 160 98 240 178 81 81 123 138 170 234 132 268
118 645 -33 864 -105 153 -320 279 -539 317 -32 6 -74 13 -93 17 -19 3 -389 7
-822 9 l-788 2 0 -1401z m1287 913 c142 -3 291 -42 359 -94 76 -58 116 -172
110 -315 -8 -184 -54 -294 -151 -359 -102 -69 -180 -79 -617 -80 l-368 -2 -1
43 c-1 62 -1 770 0 790 1 16 24 18 289 20 158 2 290 2 293 1 3 -1 42 -3 86 -4z"/>
<path d="M4768 4225 c-2 -1 -38 -5 -80 -8 -244 -19 -458 -123 -630 -306 -146
-154 -236 -338 -272 -557 -15 -87 -16 -383 -2 -444 42 -184 83 -288 161 -405
57 -86 167 -198 249 -253 104 -71 275 -140 382 -156 265 -40 485 -20 676 61
96 40 226 128 296 200 100 102 198 267 227 383 l6 25 -268 0 -268 0 -35 -64
c-88 -161 -216 -233 -403 -227 -112 4 -135 9 -213 45 -145 68 -235 222 -249
428 l-4 62 692 0 c381 0 713 0 738 0 l47 1 -4 111 c-1 60 -5 127 -8 147 -10
61 -18 116 -21 132 -54 269 -186 490 -379 637 -125 94 -319 166 -486 179 -41
3 -92 7 -112 8 -21 2 -39 2 -40 1z m178 -428 c122 -45 203 -127 254 -257 19
-48 23 -63 35 -141 l6 -37 -449 1 -450 0 5 31 c17 119 73 234 149 306 53 50
136 96 191 106 15 3 29 7 31 8 9 10 193 -4 228 -17z"/>
</g>
</svg>
