<svg width="60" height="60" viewBox="0 0 60 60" fill="none" xmlns="http://www.w3.org/2000/svg">
<path fill-rule="evenodd" clip-rule="evenodd" d="M30 55.2632C43.9525 55.2632 55.2632 43.9525 55.2632 30C55.2632 16.0475 43.9525 4.73684 30 4.73684C16.0475 4.73684 4.73684 16.0475 4.73684 30C4.73684 43.9525 16.0475 55.2632 30 55.2632ZM30 60C46.5685 60 60 46.5685 60 30C60 13.4315 46.5685 0 30 0C13.4315 0 0 13.4315 0 30C0 46.5685 13.4315 60 30 60Z" fill="#4A78EC"/>
<path d="M32.2842 24.5001C32.2842 22.2108 31.5233 20.5024 30.0016 19.3749C28.4798 18.2474 26.5085 17.6836 24.0875 17.6836H12V41.7036H17.2915V32.9737H21.8049L26.9408 41.7548H32.9068L27.2002 31.9657C30.1572 30.7015 32.2842 28.2244 32.2842 24.5001ZM17.2915 21.835H22.5831C23.9492 21.835 25.0386 22.0571 25.8514 22.5013C26.6641 22.9454 27.0619 23.7996 27.0619 25.0638C27.0619 28.4465 25.4709 29.1469 22.3583 29.1469H17.2915V21.835Z" fill="#4A78EC"/>
<path d="M41.1383 23.7998C38.5617 23.7998 36.452 24.6711 34.7919 26.4307C33.1318 28.1904 32.3018 30.4113 32.3018 33.1105C32.3018 35.861 33.1318 38.0649 34.7746 39.722C36.4174 41.3791 38.5963 42.2163 41.3112 42.2163C43.3344 42.2163 45.081 41.7037 46.5509 40.6616C48.0207 39.6195 49.0237 38.1845 49.5771 36.3052H44.9254C44.2509 37.9965 43.0405 38.8336 41.3458 38.8336C40.0488 38.8336 39.0459 38.4407 38.3196 37.6549C37.6106 36.869 37.2302 35.7244 37.2129 34.221H49.8537V33.7426C49.8537 30.6846 49.0756 28.2587 47.502 26.4649C45.911 24.6882 43.8013 23.7998 41.1383 23.7998ZM37.2129 31.1801C37.3512 29.9671 37.7662 29.0104 38.4752 28.31C39.1842 27.6095 40.0661 27.2678 41.1383 27.2678C42.2796 27.2678 43.1615 27.6266 43.8013 28.3612C44.4412 29.0958 44.8216 30.0354 44.9254 31.1801H37.2129Z" fill="#4A78EC"/>
</svg>
